<svg preserveAspectRatio="none" width="100%" height="100%" overflow="visible" style="display: block;" viewBox="0 0 30.7055 30.4592" fill="none" xmlns="http://www.w3.org/2000/svg">
<path id="Vector" d="M30.619 13.3574C30.2214 10.1171 28.8116 7.09275 26.5341 4.7165C23.7867 1.8722 20.0632 0.180019 16.1229 0C15.8698 0 15.6168 0 15.3276 0C15.183 0 15.0384 0 14.8576 0C14.7492 0 14.6769 0 14.5684 0C14.3515 0 14.1347 0.0360039 13.9178 0.0360039C13.8816 0.0360039 13.8455 0.0360039 13.8093 0.0360039C13.6286 0.0720077 13.4116 0.0720073 13.2309 0.108011C13.1947 0.108011 13.1225 0.108011 13.0863 0.144015C12.9417 0.180019 12.761 0.180019 12.6164 0.216023C12.5079 0.216023 12.4356 0.252026 12.3271 0.252026C12.2187 0.28803 12.1103 0.28803 12.0018 0.324034C11.8572 0.360038 11.7126 0.396041 11.6041 0.432045C11.5318 0.432045 11.4596 0.468049 11.3873 0.504053C11.2065 0.540057 11.0257 0.612064 10.8811 0.648068C10.845 0.648068 10.7727 0.684072 10.7366 0.684072C10.5558 0.756079 10.3751 0.792083 10.1943 0.864091C10.122 0.900095 10.0136 0.936098 9.94125 0.972102C9.79665 1.04411 9.65205 1.08011 9.50745 1.15212C7.8807 1.83619 6.39855 2.77229 5.061 3.96042C2.06055 6.6967 0.253049 10.4771 0.0722989 14.5095L0 29.7391L15.2914 30.4592C15.2914 30.4592 15.2914 30.4592 15.3276 30.4592C17.3159 30.4592 19.3403 30.0992 21.1839 29.3071C23.0276 28.551 24.7266 27.4349 26.1726 26.0307C27.5825 24.6266 28.7393 22.9344 29.4984 21.0982C30.1491 19.5501 30.5467 17.8939 30.6552 16.2377C30.6913 15.9137 30.6914 15.5896 30.6914 15.2656C30.7275 14.6175 30.6913 14.0055 30.619 13.3574ZM15.6168 8.46089C17.3882 8.5329 19.0149 9.28898 20.1717 10.5491C21.4008 11.8092 22.0515 13.5014 22.0515 15.2296C22.0515 16.9938 21.3285 18.686 20.0994 19.9461C18.8703 21.2062 17.1712 21.9263 15.3999 21.9623L8.5314 21.6383L8.56755 14.7256C8.676 13.0334 9.43515 11.4132 10.7004 10.2611C11.9656 9.10896 13.5924 8.46089 15.3276 8.46089C15.436 8.46089 15.5084 8.46089 15.6168 8.46089Z" fill="var(--fill-0, #010101)"/>
</svg>
