<svg preserveAspectRatio="none" width="100%" height="100%" overflow="visible" style="display: block;" viewBox="0 0 94.9098 86.8793" fill="none" xmlns="http://www.w3.org/2000/svg">
<g id="g6668">
<path id="rect6709" d="M0 0L74.003 9.48173L94.8035 86.8265L20.8005 77.3448L0 0Z" fill="var(--fill-0, #AADC23)"/>
<g id="g6717">
<path id="path6700" d="M11.0692 26.6316L32.4385 44.5884L43.6141 22.9937C43.6141 22.9937 33.3108 17.2048 33.0537 17.1717C32.7965 17.1387 11.0692 26.6316 11.0692 26.6316Z" fill="var(--fill-0, #265E3B)"/>
<path id="path6698" d="M25.6046 72.9646L32.6733 78.9051L59.6017 82.3673L45.9784 70.9186L32.3496 68.083L25.6046 72.9646Z" fill="var(--fill-0, #265E39)"/>
<path id="path6696" d="M45.9869 70.9191L59.5906 82.3532L94.7932 86.8793L80.564 33.7819L52.0008 9.77408L45.0248 22.2991L41.1107 66.8206L45.9869 70.9191Z" fill="var(--fill-0, #01B853)"/>
<path id="path6688" d="M45.8963 70.9477C42.1913 35.4302 53.3887 30.9907 52.2099 10.6045C52.1959 10.3637 52.1624 10.0401 51.9081 9.80512C51.6538 9.57014 51.443 9.56032 51.0571 9.58672C35.4048 10.6575 22.7632 8.28052 15.7605 8.37703C12.4037 8.42327 10.3055 8.93479 10.3593 10.9455L10.7588 25.9055C10.7673 26.2243 10.9113 26.4597 11.1074 26.6279C11.3019 26.7947 11.5495 26.899 11.8513 26.7085C20.7544 21.0906 32.7713 25.331 40.3239 22.7452C28.5473 36.3293 24.569 55.2515 25.2725 72.2414C25.2858 72.5629 25.3465 72.8054 25.5557 72.9919C25.7648 73.1783 25.9794 73.2064 26.2537 73.1597C33.0172 72.0085 39.5853 71.1871 45.8963 70.9477Z" fill="var(--fill-0, white)"/>
</g>
<g id="g6707">
<path id="path6674" d="M79.9402 49.0448C80.6454 51.6761 80.8382 54.2168 80.5077 56.5216C80.1772 58.8264 79.3299 60.8503 78.0141 62.4777C76.6982 64.1051 74.9397 65.3041 72.8389 66.0063C70.7381 66.7085 68.3361 66.9001 65.7701 66.5702C63.2041 66.2402 60.5243 65.3953 57.8838 64.0835C55.2432 62.7717 52.6937 61.0187 50.3806 58.9248C48.0675 56.8308 46.0363 54.4368 44.4029 51.8795C42.7694 49.3221 41.5658 46.6515 40.8606 44.0202C40.1555 41.3888 39.9626 38.8481 40.2931 36.5433C40.6236 34.2385 41.471 32.2146 42.7868 30.5872C44.1026 28.9598 45.8611 27.7608 47.962 27.0586C50.0628 26.3564 52.4648 26.1648 55.0308 26.4948C57.5968 26.8247 60.2765 27.6697 62.9171 28.9814C65.5576 30.2932 68.1072 32.0462 70.4202 34.1401C72.7333 36.2341 74.7645 38.6281 76.398 41.1854C78.0314 43.7428 79.2351 46.4134 79.9402 49.0448Z" fill="var(--fill-0, #EA0028)"/>
<g id="g6680">
<path id="rect6648" d="M47.4356 37.1528L47.4131 48.6864C47.4069 51.8495 49.3923 53.8003 52.274 53.8029C53.3851 53.8039 53.9445 53.4722 54.2249 53.172L54.2235 53.8761L58.7657 53.8803L58.7983 37.1632L54.2561 37.159L54.2298 50.6603C54.1341 50.7614 53.917 50.865 53.4194 50.8646C52.1698 50.8634 51.9527 50.0381 51.9547 49.0145L51.9778 37.1569L47.4356 37.1528Z" fill="var(--fill-0, white)"/>
<path id="path6656" d="M67.2504 37.1402C66.1399 37.1393 65.1651 37.8613 65.1651 37.8613L65.1664 37.1573L60.627 37.1534L60.5871 58.9027L65.1266 58.9066L65.1357 53.9374L66.8913 53.9389C71.6139 53.943 72.0483 51.1855 72.0512 49.5861L72.064 42.5712C72.0703 39.1608 69.6539 37.1423 67.2504 37.1402ZM65.4652 39.9072C66.927 39.8945 67.5279 40.7906 67.5258 41.9054L67.5129 48.9963C67.5105 50.2603 66.9521 50.814 65.7174 50.8129L65.1414 50.8124L65.1613 39.9219C65.2665 39.9127 65.3678 39.908 65.4652 39.9072Z" fill="var(--fill-0, white)"/>
</g>
</g>
</g>
</svg>
