<svg preserveAspectRatio="none" width="100%" height="100%" overflow="visible" style="display: block;" viewBox="0 0 88 83" fill="none" xmlns="http://www.w3.org/2000/svg">
<g id="Promos y bonis">
<path id="Vector" d="M25.76 26.4703L8.55538 37.8745L55.3234 28.6678L77.6144 15.426L25.76 26.4703Z" fill="var(--fill-0, #020202)"/>
<g id="Group">
<path id="Vector_2" d="M37.2151 14.4244C36.3725 13.6733 31.8409 9.89387 25.8884 9.82241C25.3741 9.81627 24.8677 9.95595 24.4269 10.2178L20.4501 12.5803L21.2929 13.6255L20.8842 15.1775C20.8842 15.1775 24.5975 14.2526 28.1166 16.8012C31.1169 15.8842 34.1569 15.1184 37.2151 14.4244Z" fill="var(--fill-0, black)" stroke="var(--stroke-0, black)" stroke-width="0.184" stroke-miterlimit="10"/>
<path id="Vector_3" d="M17.5793 21.9979C19.0503 21.1295 20.5214 20.2612 21.9801 19.3727C20.6689 17.0486 19.8292 13.245 25.0692 9.83691C25.0692 9.83691 19.6872 10.0455 15.5616 16.0356C13.6443 18.8193 14.0218 22.0455 14.5159 23.9568C15.5654 23.3372 16.5854 22.5846 17.5793 21.9979Z" fill="var(--fill-0, #CA1900)" stroke="var(--stroke-0, black)" stroke-width="0.184" stroke-miterlimit="10"/>
</g>
<g id="Group_2">
<path id="Vector_4" d="M60.5378 9.84714L61.5184 9.42292C59.2341 3.00416 52.5599 7.29254 52.5599 7.29254L49.9899 12.018C53.525 11.3862 57.0368 10.6424 60.5378 9.84714Z" fill="var(--fill-0, #FF1F00)" stroke="var(--stroke-0, black)" stroke-width="0.184" stroke-miterlimit="10"/>
<g id="Vector_5">
<path d="M37.8039 5.40385L47.6453 4.15505C50.1944 3.83157 52.6487 5.33204 53.4166 7.75555C53.7206 8.71495 53.9136 9.85969 53.8822 11.203L42.0791 16.2103" fill="var(--fill-0, #FF1F00)"/>
<path d="M37.8039 5.40385L47.6453 4.15505C50.1944 3.83157 52.6487 5.33204 53.4166 7.75555C53.7206 8.71495 53.9136 9.85969 53.8822 11.203L42.0791 16.2103" stroke="var(--stroke-0, black)" stroke-width="0.184" stroke-miterlimit="10"/>
</g>
<path id="Vector_6" d="M33.945 18.1868C33.945 18.1868 35.2802 14.4112 35.057 10.8638C34.8338 7.31641 36.3473 5.59908 37.8041 5.40388C39.2609 5.20869 43.0831 8.94689 40.9415 13.4435L33.945 18.1868Z" fill="var(--fill-0, black)" stroke="var(--stroke-0, black)" stroke-width="0.184" stroke-miterlimit="10"/>
</g>
<path id="Vector_7" d="M23.0109 17.492L25.7599 26.4705L77.448 15.3315L74.7019 6.53125L23.0391 17.4448C23.0176 17.4493 23.0045 17.4711 23.0109 17.492Z" fill="var(--fill-0, #015AFF)" stroke="var(--stroke-0, black)" stroke-width="0.184" stroke-miterlimit="10"/>
<path id="Vector_8" d="M25.76 26.4703L8.64887 37.6188L5.74426 28.4973L22.9327 17.4956C22.966 17.4743 23.0107 17.4904 23.0221 17.528L25.76 26.4703Z" fill="var(--fill-0, black)" stroke="var(--stroke-0, black)" stroke-width="0.184" stroke-miterlimit="10"/>
<path id="Vector_9" d="M18.3314 20.4403L10.2209 25.6314L13.1262 34.7012L21.2119 29.433L18.3314 20.4403Z" fill="var(--fill-0, #CA1900)" stroke="var(--stroke-0, black)" stroke-width="0.184" stroke-miterlimit="10"/>
<path id="Vector_10" d="M56.4271 10.3914L42.2802 13.3799L45.0174 22.3201L59.147 19.2752L56.4271 10.3914Z" fill="var(--fill-0, #FF1F00)" stroke="var(--stroke-0, black)" stroke-width="0.184" stroke-miterlimit="10"/>
<path id="Vector_11" d="M76.0675 15.6436C76.0675 15.6436 68.8412 16.706 68.8412 8.82797C68.8412 8.82797 68.9378 15.6436 62.6731 15.6436C62.6731 15.6436 69.0513 16.7991 69.0513 22.9965C69.0513 22.9965 68.7324 16.589 76.0675 15.6436Z" fill="var(--fill-0, white)" stroke="var(--stroke-0, black)" stroke-width="0.184" stroke-miterlimit="10"/>
<path id="Vector_12" d="M30.5367 36.0859H12.1192V77.6667H30.5367V36.0859Z" fill="var(--fill-0, black)" stroke="var(--stroke-0, black)" stroke-width="0.184" stroke-miterlimit="10"/>
<path id="Vector_13" d="M72.2619 36.0859H30.1802V77.6667H72.2619V36.0859Z" fill="var(--fill-0, #015AFF)" stroke="var(--stroke-0, black)" stroke-width="0.184" stroke-miterlimit="10"/>
<path id="Vector_14" d="M57.8064 69.3788V36.0859H44.6357V59.5161C44.6357 64.9631 49.1046 69.3788 54.6172 69.3788H57.8064Z" fill="var(--fill-0, #FF1F00)" stroke="var(--stroke-0, black)" stroke-width="0.184" stroke-miterlimit="10"/>
<path id="Vector_15" d="M63.7538 53.7723C61.4291 53.7723 59.5446 55.6344 59.5446 57.9314V64.3593C59.3825 67.1764 57.0168 69.3784 54.1613 69.3784H67.4925C70.3481 69.3784 72.7973 67.1799 72.8758 64.3593V53.7723H63.7538Z" fill="var(--fill-0, black)" stroke="var(--stroke-0, black)" stroke-width="0.184" stroke-miterlimit="10"/>
<path id="Vector_16" d="M25.6648 36.0859H16.9915V77.6667H25.6648V36.0859Z" fill="var(--fill-0, #CA1900)" stroke="var(--stroke-0, black)" stroke-width="0.184" stroke-miterlimit="10"/>
<path id="Vector_17" d="M82.1808 58.7913C82.1023 55.9708 79.6531 53.7723 76.7975 53.7723H63.4663C66.3218 53.7723 68.6875 55.9743 68.8496 58.7913C69.1721 64.3949 68.4 72.9155 68.3606 73.1964L75.7185 68.5004L82.2597 73.4342C82.2597 73.4342 82.3538 65.0047 82.1808 58.7913Z" fill="var(--fill-0, #FF1F00)" stroke="var(--stroke-0, black)" stroke-width="0.184" stroke-miterlimit="10"/>
<path id="Vector_18" d="M21.4577 48.0901C21.4577 48.0901 14.2313 49.1525 14.2313 41.2745C14.2313 41.2745 14.3279 48.0901 8.06325 48.0901C8.06325 48.0901 14.4414 49.2456 14.4414 55.443C14.4414 55.443 14.1225 49.0355 21.4577 48.0901Z" fill="var(--fill-0, white)" stroke="var(--stroke-0, black)" stroke-width="0.184" stroke-miterlimit="10"/>
</g>
</svg>
