<svg preserveAspectRatio="none" width="100%" height="100%" overflow="visible" style="display: block;" viewBox="0 0 20 20" fill="none" xmlns="http://www.w3.org/2000/svg">
<g id="arrow_forward">
<mask id="mask0_959_8349" style="mask-type:alpha" maskUnits="userSpaceOnUse" x="0" y="0" width="20" height="20">
<rect id="Bounding box" width="20" height="20" fill="var(--fill-0, #D9D9D9)"/>
</mask>
<g mask="url(#mask0_959_8349)">
<path id="arrow_forward_2" d="M9.5625 15.9167C9.4375 15.7917 9.375 15.6422 9.375 15.4683C9.375 15.295 9.43056 15.1458 9.54167 15.0208L13.9583 10.625H4.27083C4.10417 10.625 3.95833 10.5658 3.83333 10.4475C3.70833 10.3297 3.64583 10.1806 3.64583 10C3.64583 9.81944 3.70833 9.67 3.83333 9.55167C3.95833 9.43389 4.10417 9.375 4.27083 9.375H13.9583L9.54167 4.97917C9.43056 4.85417 9.375 4.705 9.375 4.53167C9.375 4.35778 9.4375 4.20833 9.5625 4.08333C9.6875 3.97222 9.83333 3.91667 10 3.91667C10.1667 3.91667 10.3125 3.97222 10.4375 4.08333L15.8125 9.47917C15.8958 9.54861 15.955 9.62833 15.99 9.71833C16.0244 9.80889 16.0417 9.90278 16.0417 10C16.0417 10.0972 16.0244 10.1908 15.99 10.2808C15.955 10.3714 15.8958 10.4514 15.8125 10.5208L10.4375 15.9167C10.3125 16.0278 10.1667 16.0833 10 16.0833C9.83333 16.0833 9.6875 16.0278 9.5625 15.9167Z" fill="var(--fill-0, #0F172A)"/>
</g>
</g>
</svg>
