<svg preserveAspectRatio="none" width="100%" height="100%" overflow="visible" style="display: block;" viewBox="0 0 1.78691 0.904901" fill="none" xmlns="http://www.w3.org/2000/svg">
<g id="Group">
<path id="Vector" d="M0.000124895 0.141436L1.41235 0.876652C1.46999 0.90493 1.52764 0.90493 1.58528 0.876652L0.173051 0.141436C0.115409 0.169714 0.0289459 0.169714 0.000124895 0.141436Z" fill="var(--fill-0, black)"/>
<path id="Vector_2" d="M0.172941 0.169647L1.58517 0.904868C1.61399 0.904868 1.61399 0.904866 1.64281 0.876588C1.70045 0.848311 1.72927 0.820035 1.78691 0.763479L0.374688 0.0282593C0.317046 0.0848145 0.288225 0.113095 0.230583 0.141372C0.201762 0.141372 0.172941 0.169647 0.172941 0.169647Z" fill="var(--fill-0, black)"/>
<path id="Vector_3" d="M0.345752 0.0565544L1.75798 0.791775C1.75798 0.763497 1.7868 0.763494 1.7868 0.735216L0.374574 0C0.374574 0.0282776 0.345752 0.0282768 0.345752 0.0565544Z" fill="var(--fill-0, black)"/>
</g>
</svg>
