<svg preserveAspectRatio="none" width="100%" height="100%" overflow="visible" style="display: block;" viewBox="0 0 39.0954 44.3242" fill="none" xmlns="http://www.w3.org/2000/svg">
<g id="Group">
<g id="Group_2">
<path id="Vector" d="M16.2813 1.63529C6.74152 5.99004 -0.492537 18.1777 0.141524 28.8667C0.775585 39.5556 9.01838 44.7021 18.5581 40.3756C28.0979 36.0209 35.3319 23.8332 34.6979 13.1443C34.0638 2.45534 25.821 -2.69119 16.2813 1.63529Z" fill="var(--fill-0, #015AFF)" stroke="var(--stroke-0, black)" stroke-width="0.205656" stroke-miterlimit="10"/>
</g>
<path id="Vector_2" d="M18.9044 43.9669C18.8179 43.9951 18.7603 43.9951 18.6738 43.9951C18.5009 44.0234 18.328 44.0517 18.1838 44.08C18.0974 44.08 18.0109 44.1082 17.9245 44.1082C17.7515 44.1365 17.5786 44.1365 17.4345 44.1648C17.3769 44.1648 17.2904 44.1648 17.2328 44.1931C17.0022 44.2214 16.7716 44.2214 16.541 44.2214H16.5122C16.3105 44.2214 16.0799 44.2214 15.8782 44.2214C15.7917 44.2214 15.7341 44.2214 15.6764 44.2214C15.5323 44.2214 15.3594 44.1931 15.2153 44.1931C15.1288 44.1931 15.0712 44.1648 14.9847 44.1648C14.8406 44.1365 14.6677 44.1365 14.5236 44.1082C14.4659 44.1082 14.3795 44.08 14.3218 44.08C14.1201 44.0517 13.8895 43.9951 13.6878 43.9669C13.6878 43.9669 13.6878 43.9669 13.659 43.9669C13.4572 43.9103 13.2555 43.8537 13.0537 43.7972C12.9961 43.7689 12.9384 43.7689 12.852 43.7406C12.7079 43.6841 12.5638 43.6558 12.4197 43.5992C12.362 43.571 12.2755 43.5427 12.2179 43.5144C12.0738 43.4579 11.9585 43.4013 11.8144 43.3448C11.7568 43.3165 11.6991 43.2882 11.6415 43.2599C11.4397 43.1751 11.2668 43.0903 11.0651 42.9771L6.68428 40.6584C6.85721 40.7432 7.05895 40.8563 7.2607 40.9412C7.31834 40.9694 7.37598 40.9977 7.43363 41.026C7.57773 41.0825 7.69301 41.1391 7.83712 41.1957C7.89476 41.2239 7.98122 41.2522 8.03887 41.2805C8.18297 41.337 8.32708 41.3653 8.47118 41.4219C8.52882 41.4502 8.58646 41.4501 8.67293 41.4784C8.87467 41.535 9.07642 41.5915 9.27817 41.6481C9.27817 41.6481 9.27817 41.6481 9.30699 41.6481C9.50874 41.7046 9.7393 41.7329 9.94105 41.7895C9.99869 41.7895 10.0852 41.8178 10.1428 41.8178C10.2869 41.846 10.4598 41.8743 10.6039 41.8743C10.6904 41.8743 10.748 41.9026 10.8345 41.9026C10.9786 41.9309 11.1515 41.9309 11.2956 41.9309C11.3533 41.9309 11.4397 41.9309 11.4974 41.9309C11.6991 41.9309 11.9297 41.9309 12.1314 41.9309H12.1603C12.3908 41.9309 12.6214 41.9026 12.852 41.9026C12.9096 41.9026 12.9961 41.9026 13.0537 41.8743C13.2266 41.8743 13.3707 41.846 13.5437 41.8178C13.6301 41.8178 13.7166 41.7895 13.8031 41.7895C13.976 41.7612 14.1201 41.7329 14.293 41.7046C14.3795 41.7046 14.4371 41.6764 14.5236 41.6764C14.7542 41.6481 14.9559 41.5915 15.1865 41.535C15.2153 41.535 15.2153 41.535 15.2441 41.535C15.4747 41.4784 15.7341 41.4219 15.9935 41.337C16.0799 41.3088 16.1376 41.2805 16.224 41.2805C16.3969 41.2239 16.5699 41.1674 16.7428 41.1108C16.8293 41.0825 16.9157 41.0543 17.0022 41.026C17.1751 40.9694 17.348 40.8846 17.521 40.828C17.6074 40.7998 17.6651 40.7715 17.7515 40.7432C18.0109 40.6301 18.2703 40.5453 18.5009 40.4039C18.7603 40.2908 19.0485 40.1494 19.3079 40.008C19.3655 39.9797 19.3943 39.9514 19.452 39.9232C19.7114 39.7818 19.9707 39.6687 20.2013 39.499C20.259 39.4707 20.2878 39.4424 20.3454 39.4142C20.6048 39.2728 20.8354 39.1314 21.0948 38.9617C21.0948 38.9617 21.1236 38.9617 21.1236 38.9334C21.383 38.7638 21.6135 38.5941 21.8729 38.4244C21.9306 38.3962 21.9594 38.3679 22.017 38.3113C22.2476 38.1417 22.507 37.972 22.7376 37.8023C22.7664 37.7741 22.824 37.7458 22.8528 37.7175C23.0834 37.5478 23.314 37.3782 23.5445 37.1802C23.5734 37.1519 23.5734 37.152 23.6022 37.1237C23.8328 36.9257 24.0633 36.7278 24.2939 36.5298C24.3515 36.5016 24.3804 36.445 24.438 36.4167C24.6686 36.2188 24.8703 36.0208 25.1009 35.7946C25.1297 35.7663 25.1873 35.7098 25.2162 35.6815C25.4179 35.4836 25.6197 35.2856 25.8214 35.0594C25.8502 35.0311 25.879 35.0029 25.879 35.0029C26.0808 34.8049 26.2825 34.5787 26.4843 34.3807C26.5707 34.2959 26.6572 34.1828 26.7437 34.098C26.8878 33.9566 27.0031 33.7869 27.1472 33.6455C27.2336 33.5324 27.3201 33.4476 27.4066 33.3345C27.5507 33.1648 27.6659 33.0234 27.81 32.8537C27.8965 32.7406 27.983 32.6558 28.0406 32.5427C28.1847 32.373 28.3288 32.1751 28.4441 32.0054C28.5017 31.9206 28.5882 31.8358 28.6459 31.7509C28.8476 31.4681 29.0493 31.2136 29.2223 30.9309C29.3952 30.6481 29.5969 30.3936 29.7699 30.1108C29.8275 30.026 29.8852 29.9129 29.9428 29.828C30.0581 29.6301 30.1734 29.4322 30.2886 29.2342C30.3463 29.1211 30.4328 29.008 30.4904 28.8949C30.6057 28.6969 30.6921 28.5273 30.8074 28.3293C30.8651 28.2162 30.9227 28.1314 30.9804 28.0183C31.0956 27.8203 31.1821 27.6224 31.2974 27.4244C31.355 27.3396 31.3838 27.2265 31.4415 27.1417C31.5856 26.8872 31.7009 26.6327 31.8162 26.3499C31.845 26.3216 31.845 26.2933 31.8738 26.2368C32.0179 25.9257 32.1332 25.643 32.2773 25.3319C32.3061 25.2471 32.3638 25.1622 32.3926 25.0491C32.479 24.8229 32.5655 24.625 32.652 24.3987C32.6808 24.2856 32.7384 24.1725 32.7673 24.0594C32.8537 23.8615 32.9114 23.6635 32.9978 23.4373C33.0266 23.3242 33.0843 23.2111 33.1131 23.1262C33.1996 22.9 33.286 22.6455 33.3437 22.4193C33.3725 22.3345 33.4013 22.2779 33.4013 22.1931C33.4878 21.882 33.5742 21.571 33.6607 21.2599C33.6895 21.1751 33.6895 21.1185 33.7183 21.0337C33.776 20.8075 33.8336 20.553 33.8913 20.3268C33.9201 20.2136 33.9489 20.1005 33.9777 19.9874C34.0354 19.7895 34.0642 19.5633 34.1218 19.3653C34.1507 19.2522 34.1795 19.1391 34.1795 19.026C34.2083 18.7998 34.2659 18.5735 34.2948 18.3473C34.3236 18.2625 34.3236 18.1494 34.3524 18.0645C34.41 17.7535 34.4389 17.4424 34.4677 17.1314C34.4677 17.0748 34.4677 17.0466 34.4677 16.99C34.4965 16.7072 34.5253 16.4527 34.5542 16.1699C34.5542 16.0568 34.5541 15.972 34.583 15.8589C34.6118 15.6327 34.6118 15.3782 34.6118 15.152C34.6118 15.0954 34.6118 15.0388 34.6118 14.9823C34.6118 14.6995 34.6118 14.3885 34.6118 14.1057C34.6118 14.0491 34.6118 13.9926 34.6118 13.936C34.6118 13.625 34.583 13.3422 34.583 13.0311C34.2371 7.34732 31.7585 3.21879 28.0406 1.26763L32.4214 3.5864C36.1105 5.53756 38.6179 9.66609 38.9638 15.3499C38.9926 15.6609 38.9926 15.9437 38.9926 16.2548C38.9926 16.3113 38.9926 16.3679 38.9926 16.4244C38.9926 16.7072 38.9926 17.0183 38.9926 17.3011C38.9926 17.3576 38.9926 17.4142 38.9926 17.4707C38.9926 17.5838 38.9926 17.6687 38.9926 17.7818C38.9926 17.9232 38.9638 18.0363 38.9638 18.1777C38.9638 18.2908 38.9638 18.3756 38.9349 18.4887C38.9061 18.7715 38.8773 19.026 38.8485 19.3088C38.8485 19.3653 38.8485 19.3936 38.8485 19.4502C38.8197 19.7612 38.762 20.0723 38.7332 20.3833C38.7332 20.4681 38.7044 20.5813 38.6755 20.6661C38.6467 20.8923 38.5891 21.1185 38.5603 21.3448C38.5314 21.4579 38.5026 21.571 38.5026 21.6841C38.4738 21.882 38.4162 22.1082 38.3585 22.3062C38.3297 22.4193 38.3009 22.5324 38.2721 22.6455C38.2144 22.8717 38.1568 23.1262 38.0991 23.3525C38.0703 23.4373 38.0703 23.4939 38.0415 23.5787C37.955 23.8897 37.8686 24.2008 37.7821 24.5118C37.7533 24.5967 37.7245 24.6532 37.7245 24.7381C37.638 24.9643 37.5804 25.2188 37.4939 25.445C37.4651 25.5581 37.4074 25.6712 37.3786 25.7561C37.2921 25.954 37.2345 26.1802 37.148 26.3782C37.1192 26.4913 37.0616 26.6044 37.0328 26.7175C36.9463 26.9437 36.8598 27.1417 36.7734 27.3679C36.7445 27.4527 36.6869 27.5376 36.6581 27.6507C36.5428 27.9617 36.3987 28.2445 36.2546 28.5555C36.2258 28.5838 36.2258 28.6121 36.1969 28.6687C36.0817 28.9232 35.9376 29.2059 35.8223 29.4604C35.7646 29.5453 35.7358 29.6584 35.6782 29.7432C35.5629 29.9412 35.4764 30.1391 35.3611 30.337C35.3035 30.4502 35.2459 30.535 35.1882 30.6481C35.1594 30.7329 35.1017 30.7895 35.0729 30.8743C35.0153 30.9874 34.9576 31.1005 34.8712 31.2136C34.8135 31.3268 34.7559 31.4399 34.6694 31.553C34.5542 31.7509 34.4389 31.9489 34.3236 32.1468C34.2659 32.2316 34.2083 32.3448 34.1507 32.4296C33.9777 32.7124 33.8048 32.9951 33.6031 33.2496C33.6031 33.2496 33.6031 33.2496 33.6031 33.2779C33.4013 33.5607 33.2284 33.8152 33.0266 34.098C32.969 34.1828 32.8825 34.2676 32.8249 34.3525C32.6808 34.5221 32.5655 34.7201 32.4214 34.8897C32.3349 35.0028 32.2485 35.0877 32.1908 35.2008C32.0467 35.3705 31.9314 35.5118 31.7873 35.6815C31.7009 35.7946 31.6144 35.8795 31.5279 35.9926C31.3838 36.134 31.2686 36.3036 31.1245 36.445C31.038 36.5298 30.9515 36.643 30.8651 36.7278C30.8362 36.7843 30.7786 36.8126 30.7498 36.8692C30.6057 37.0388 30.4328 37.2085 30.2886 37.3499C30.2598 37.3782 30.231 37.4064 30.231 37.4064C30.0293 37.6044 29.8275 37.8306 29.5969 38.0286C29.5681 38.0568 29.5105 38.0851 29.4817 38.1417C29.2511 38.3396 29.0493 38.5658 28.8188 38.7638C28.7611 38.7921 28.7323 38.8486 28.6747 38.8769C28.4441 39.0748 28.2135 39.2728 27.983 39.4707C27.9542 39.499 27.9541 39.499 27.9253 39.5273C27.6948 39.7252 27.4642 39.8949 27.2336 40.0645C27.2048 40.0928 27.1472 40.1211 27.1183 40.1494C26.8878 40.319 26.6572 40.4887 26.3978 40.6584C26.3402 40.6867 26.3114 40.7149 26.2537 40.7715C25.9943 40.9412 25.7638 41.1108 25.5044 41.2805C25.5044 41.2805 25.4755 41.2805 25.4755 41.3088C25.2162 41.4502 24.9856 41.6198 24.7262 41.7612C24.6686 41.7895 24.6397 41.8178 24.5821 41.846C24.3227 41.9874 24.0921 42.1288 23.8328 42.2702C23.7751 42.2985 23.7463 42.3268 23.6886 42.355C23.4293 42.4964 23.1699 42.6095 22.8817 42.7509C22.6223 42.864 22.3629 42.9771 22.1323 43.0903C22.0459 43.1185 21.9882 43.1468 21.9017 43.1751C21.7288 43.2316 21.5559 43.3165 21.383 43.373C21.2965 43.4013 21.21 43.4296 21.1236 43.4579C20.9507 43.5144 20.7777 43.571 20.6048 43.6275C20.5183 43.6558 20.4607 43.6841 20.3742 43.6841C20.3454 43.6841 20.3166 43.7124 20.2878 43.7124C20.0572 43.7689 19.8555 43.8255 19.6249 43.882C19.5961 43.882 19.5961 43.882 19.5673 43.882C19.3367 43.882 19.1349 43.9103 18.9044 43.9669Z" fill="var(--fill-0, black)" stroke="var(--stroke-0, black)" stroke-width="0.205656" stroke-miterlimit="10"/>
</g>
</svg>
