<svg preserveAspectRatio="none" width="100%" height="100%" overflow="visible" style="display: block;" viewBox="0 0 58.7116 13.7305" fill="none" xmlns="http://www.w3.org/2000/svg">
<path id="Vector" d="M13.7655 0.295227H25.1559V3.54772H18.279V5.23067H23.6865V8.35974H18.279V10.0427H25.2343V13.2952H13.7655V0.29356V0.295227ZM54.1131 13.2969H58.7116V0.0867338L54.1465 1.70297L54.1131 13.2969ZM39.4452 10.4413C40.3025 12.6697 42.8595 13.7305 46.6691 13.7305C50.4787 13.7305 52.8321 12.1727 52.8321 9.41888C52.8321 4.64689 44.7426 5.82947 44.7426 4.08813C44.7426 3.58275 45.3281 3.20079 46.3622 3.20079C47.7966 3.20079 48.5839 3.66114 48.8741 4.58685L52.5302 3.20412C52.0716 1.38606 50.2402 0 46.2287 0C42.8495 0 40.3526 1.45945 40.3526 4.13484C40.3526 9.11198 48.4421 7.82933 48.4421 9.66741C48.4421 10.2228 47.8683 10.5548 46.6407 10.5548C44.7976 10.5548 43.5667 10.0961 43.068 9.07528L39.4435 10.4397L39.4452 10.4413ZM7.75761 9.60903L4.51513 10.8216V13.2985H0V0.298563H7.03205C10.6865 0.298563 12.5079 1.8681 12.5079 4.65357C12.5079 7.43903 10.4997 8.60326 7.75761 9.60903ZM6.34486 3.54772H4.51513V7.44737L6.22477 6.75684C7.31894 6.34653 7.93441 5.86282 7.93441 4.85539C7.93441 4.02642 7.35063 3.54772 6.34653 3.54772H6.34486ZM34.8033 9.60903L31.5608 10.8216V13.2985H27.0457V0.298563H34.0778C37.7322 0.298563 39.5536 1.8681 39.5536 4.65357C39.5536 7.43903 37.5454 8.60326 34.8033 9.60903ZM33.3906 3.54772H31.5608V7.44737L33.2705 6.75684C34.3647 6.34653 34.9801 5.86282 34.9801 4.85539C34.9801 4.02642 34.3963 3.54772 33.3922 3.54772H33.3906Z" fill="var(--fill-0, #1E293B)"/>
</svg>
