<svg preserveAspectRatio="none" width="100%" height="100%" overflow="visible" style="display: block;" viewBox="0 0 20.2159 17.7866" fill="none" xmlns="http://www.w3.org/2000/svg">
<g id="Group">
<path id="Vector" d="M10.0937 17.6736C6.26055 17.6736 2.71557 15.7225 1.1016 12.6685C0.0352226 10.6608 -0.137703 8.39856 0.640463 6.27774C1.47627 3.95897 3.37845 2.03609 5.88588 1.0181C7.24046 0.452546 8.68151 0.16977 10.1514 0.16977C13.9846 0.16977 17.5295 2.12093 19.1435 5.17491C20.2099 7.18262 20.3828 9.44483 19.6047 11.5657C18.7688 13.8844 16.8667 15.8073 14.3592 16.8253C13.0335 17.3909 11.5924 17.6736 10.0937 17.6736Z" fill="var(--fill-0, #FF1F00)"/>
<path id="Vector_2" d="M10.1224 0.282776C13.8979 0.282776 17.3853 2.20566 18.9992 5.20308C20.0656 7.18252 20.2097 9.38817 19.4604 11.4807C18.6246 13.7429 16.7512 15.6375 14.3014 16.6838C12.9757 17.2494 11.5634 17.5321 10.0936 17.5321C6.31802 17.5321 2.83068 15.6093 1.21671 12.6118C0.150331 10.6324 0.00622691 8.42674 0.755572 6.33419C1.59138 4.07198 3.46474 2.17738 5.91452 1.13111C7.24029 0.565553 8.65251 0.282776 10.1224 0.282776ZM10.1224 0C8.68134 0 7.18265 0.282776 5.79924 0.848329C0.755572 2.94087 -1.406 8.25707 0.957318 12.6967C2.68658 15.892 6.31802 17.7866 10.0936 17.7866C11.5346 17.7866 13.0333 17.5039 14.4167 16.9383C19.4604 14.8458 21.6219 9.52956 19.2586 5.08997C17.5294 1.8946 13.9267 0 10.1224 0Z" fill="var(--fill-0, black)"/>
</g>
</svg>
