<svg preserveAspectRatio="none" width="100%" height="100%" overflow="visible" style="display: block;" viewBox="0 0 45.5841 44.2112" fill="none" xmlns="http://www.w3.org/2000/svg">
<g id="Group">
<g id="Group_2">
<path id="Vector" d="M19.3086 0.249293C30.4334 1.57834 41.8465 11.6452 44.7863 22.7017C47.726 33.7583 41.0684 41.6195 29.9435 40.2904C18.8186 38.9614 7.40549 28.8945 4.46576 17.838C1.52602 6.78143 8.18366 -1.07976 19.3086 0.249293Z" fill="var(--fill-0, #015AFF)" stroke="var(--stroke-0, black)" stroke-width="0.205656" stroke-miterlimit="10"/>
</g>
<path id="Vector_2" d="M30.7507 44.0518C30.8371 44.0518 30.9236 44.0235 31.0101 44.0235C31.183 43.9952 31.3559 43.967 31.5288 43.9387C31.6153 43.9104 31.7018 43.9104 31.7882 43.8821C31.9612 43.8538 32.1341 43.8256 32.307 43.769C32.3935 43.7407 32.4511 43.7407 32.5376 43.7125C32.7681 43.6559 33.0275 43.5993 33.2581 43.5145C33.2869 43.5145 33.2869 43.5145 33.2869 43.5145C33.5175 43.458 33.7192 43.3731 33.921 43.2883C34.0074 43.26 34.0651 43.2317 34.1227 43.2035C34.2668 43.1469 34.4398 43.0903 34.5839 43.0055C34.6703 42.9772 34.728 42.949 34.8144 42.8924C34.9585 42.8359 35.1026 42.751 35.2467 42.6945C35.3044 42.6662 35.3909 42.6379 35.4485 42.6096C35.6502 42.4965 35.852 42.3834 36.0537 42.2703C36.0537 42.2703 36.0537 42.2703 36.0826 42.2703C36.2843 42.1572 36.4572 42.0441 36.6302 41.9027C36.6878 41.8744 36.7454 41.8179 36.8031 41.7896C36.9184 41.7047 37.0625 41.6199 37.1778 41.5068C37.2354 41.4502 37.293 41.422 37.3507 41.3654C37.466 41.2806 37.5812 41.1675 37.6965 41.0544C37.7542 40.9978 37.8118 40.9695 37.8695 40.913C38.0424 40.7716 38.1865 40.6019 38.3594 40.4605L42.0197 36.7279C41.8756 36.8975 41.7026 37.0389 41.5297 37.1803C41.4721 37.2369 41.4144 37.2652 41.3856 37.3217C41.2703 37.4348 41.155 37.5197 41.0398 37.6328C40.9821 37.6893 40.9245 37.7176 40.8668 37.7742C40.7516 37.859 40.6074 37.9721 40.4922 38.0569C40.4345 38.0852 40.3769 38.1418 40.3192 38.17C40.1463 38.2832 39.9446 38.4245 39.7716 38.5376C39.7716 38.5376 39.7716 38.5376 39.7428 38.5376C39.5411 38.6508 39.3393 38.7639 39.1376 38.877C39.0799 38.9053 39.0223 38.9335 38.9358 38.9618C38.7917 39.0466 38.6476 39.1032 38.5035 39.1598C38.4171 39.188 38.3594 39.2163 38.2729 39.2446C38.1288 39.3011 37.9559 39.3577 37.8118 39.4425C37.7542 39.4708 37.6677 39.4991 37.6101 39.5274C37.4083 39.6122 37.1777 39.6688 36.9472 39.7536H36.9184C36.6878 39.8101 36.4572 39.895 36.1978 39.9515C36.1114 39.9798 36.0537 39.9798 35.9673 40.0081C35.7943 40.0364 35.6214 40.0929 35.4485 40.1212C35.362 40.1495 35.2756 40.1495 35.1891 40.1778C35.0162 40.206 34.8433 40.2343 34.6703 40.2626C34.5839 40.2626 34.4974 40.2909 34.4109 40.2909C34.1804 40.3191 33.921 40.3474 33.6904 40.3757C33.6616 40.3757 33.6328 40.3757 33.6328 40.3757C33.3734 40.404 33.0852 40.404 32.8258 40.404C32.7393 40.404 32.6529 40.404 32.5664 40.404C32.3646 40.404 32.1629 40.404 31.9612 40.404C31.8747 40.404 31.7594 40.404 31.6729 40.404C31.4712 40.404 31.2695 40.3757 31.0677 40.3757C30.9812 40.3757 30.8948 40.3757 30.8083 40.3474C30.5201 40.3191 30.2319 40.2909 29.9149 40.2626C29.5978 40.2343 29.2808 40.1778 28.9638 40.1212C28.9061 40.1212 28.8485 40.0929 28.7909 40.0929C28.5026 40.0364 28.1856 39.9798 27.8974 39.9233C27.8398 39.9233 27.7821 39.895 27.7245 39.895C27.4363 39.8384 27.1192 39.7536 26.831 39.6688H26.8022C26.4852 39.5839 26.197 39.4991 25.8799 39.4143C25.8223 39.386 25.7646 39.386 25.707 39.3577C25.4188 39.2729 25.1018 39.1598 24.8136 39.0749C24.7559 39.0466 24.6983 39.0466 24.6406 39.0184C24.3524 38.9053 24.0642 38.8204 23.776 38.679C23.7472 38.679 23.7184 38.6508 23.6895 38.6508C23.4013 38.5376 23.0843 38.3963 22.7961 38.2832C22.7385 38.2549 22.6808 38.2266 22.6232 38.1983C22.335 38.0569 22.0467 37.9438 21.7585 37.8024C21.7009 37.7742 21.6721 37.7459 21.6144 37.7176C21.3262 37.5762 21.0668 37.4348 20.7786 37.2934C20.7498 37.2652 20.721 37.2652 20.6922 37.2369C20.404 37.0955 20.1446 36.9258 19.8852 36.7844C19.7699 36.7279 19.6546 36.643 19.5105 36.5865C19.3088 36.4734 19.1358 36.3603 18.9341 36.2472C18.8188 36.1623 18.7035 36.1058 18.5594 36.0209C18.3577 35.9078 18.1847 35.7947 18.0118 35.6533C17.8965 35.5685 17.7812 35.5119 17.666 35.4271C17.4642 35.2857 17.2625 35.1443 17.0607 35.0029C16.9743 34.9464 16.859 34.8616 16.7725 34.805C16.4843 34.6071 16.1961 34.3808 15.9079 34.1546C15.6197 33.9284 15.3603 33.7022 15.0721 33.5042C14.9856 33.4194 14.8991 33.3628 14.8127 33.278C14.6398 33.1083 14.438 32.967 14.2651 32.7973C14.1498 32.7125 14.0633 32.6276 13.9481 32.5145C13.7751 32.3731 13.6022 32.2035 13.4293 32.0621C13.3428 31.9772 13.2564 31.8924 13.1411 31.8076C12.9681 31.6379 12.7952 31.4682 12.6223 31.2986C12.5358 31.2137 12.4494 31.1289 12.3629 31.0441C12.1323 30.8179 11.9306 30.5916 11.7 30.3654C11.6712 30.3371 11.6424 30.3089 11.6136 30.2806C11.383 30.0261 11.1524 29.7716 10.893 29.4888C10.8354 29.404 10.7489 29.3191 10.6913 29.2626C10.5184 29.0646 10.3743 28.895 10.2013 28.697C10.1149 28.6122 10.0572 28.4991 9.97076 28.4143C9.82666 28.2446 9.68255 28.0466 9.53845 27.8487C9.45199 27.7639 9.39434 27.6508 9.30788 27.5659C9.13495 27.3397 8.99085 27.1418 8.84675 26.9155C8.7891 26.859 8.76028 26.7742 8.70264 26.7176C8.50089 26.4348 8.29915 26.152 8.12622 25.8693C8.06858 25.8127 8.03976 25.7279 7.98212 25.643C7.83801 25.4168 7.69391 25.1906 7.5498 24.9927C7.49216 24.8796 7.43452 24.7947 7.37688 24.6816C7.26159 24.4837 7.14631 24.2857 7.03102 24.0878C6.97338 23.9747 6.91574 23.8898 6.8581 23.7767C6.74281 23.5505 6.62753 23.3526 6.51225 23.1263C6.45461 23.0415 6.42579 22.9567 6.36814 22.8718C6.22404 22.5608 6.07993 22.278 5.93583 21.967C5.90701 21.9104 5.90701 21.8821 5.87819 21.8256C5.7629 21.5711 5.64762 21.2883 5.53233 21.0338C5.50351 20.9207 5.44587 20.8358 5.41705 20.7227C5.33059 20.4965 5.24412 20.242 5.15766 20.0158C5.12884 19.9592 5.12884 19.9027 5.10002 19.8461C4.98474 19.5634 4.89827 19.2523 4.81181 18.9695C4.78299 18.913 4.78299 18.8564 4.75417 18.7999C4.6677 18.4888 4.58124 18.1778 4.49478 17.8667C2.93845 11.9849 4.09129 7.00808 7.20395 3.84099L3.48605 7.54536C0.402204 10.7125 -0.779456 15.6893 0.805697 21.5711C0.892159 21.8821 0.978623 22.1932 1.06509 22.5042C1.09391 22.5608 1.09391 22.6173 1.12273 22.6739C1.20919 22.985 1.32447 23.2677 1.41094 23.5505C1.43976 23.6071 1.43976 23.6636 1.46858 23.7202C1.4974 23.8333 1.55504 23.9464 1.58386 24.0312C1.6415 24.1726 1.69915 24.2857 1.72797 24.4271C1.75679 24.5402 1.81443 24.6251 1.84325 24.7382C1.95853 24.9927 2.07382 25.2754 2.1891 25.5299C2.21792 25.5582 2.21792 25.6148 2.24674 25.643C2.39085 25.9541 2.53495 26.2652 2.67906 26.5479C2.7367 26.6328 2.76552 26.7176 2.82316 26.8024C2.93845 27.0287 3.05373 27.2266 3.16901 27.4528C3.22666 27.5659 3.2843 27.679 3.34194 27.7639C3.45723 27.9618 3.57251 28.1598 3.68779 28.3577C3.74543 28.4708 3.80308 28.5556 3.86072 28.6688C4.00482 28.895 4.14893 29.1212 4.29303 29.3191C4.35067 29.404 4.3795 29.4605 4.43714 29.5454C4.63888 29.8281 4.81181 30.1109 5.01356 30.3937C5.0712 30.4502 5.10002 30.5351 5.15766 30.5916C5.30177 30.8179 5.47469 31.0158 5.64762 31.242C5.73408 31.3269 5.79172 31.44 5.87819 31.5248C6.02229 31.7227 6.1664 31.8924 6.3105 32.0903C6.39696 32.1752 6.45461 32.2883 6.54107 32.3731C6.68517 32.5711 6.8581 32.7407 7.03102 32.9387C7.08867 33.0235 7.17513 33.1083 7.23277 33.1649C7.46334 33.4194 7.69391 33.7022 7.9533 33.9567C7.98212 33.9849 8.01094 34.0132 8.03976 34.0415C8.2415 34.2677 8.47207 34.4939 8.70264 34.7202C8.7891 34.805 8.87557 34.8898 8.96203 34.9747C9.13496 35.1443 9.30788 35.314 9.48081 35.4837C9.56727 35.5685 9.65373 35.6533 9.76901 35.7382C9.82666 35.7947 9.91312 35.8796 9.97076 35.9361C10.0572 36.0209 10.1725 36.1058 10.2878 36.2189C10.4031 36.3037 10.4895 36.4168 10.6048 36.5017C10.7777 36.6713 10.9795 36.8127 11.1524 36.9824C11.2389 37.0672 11.3253 37.1238 11.4118 37.2086C11.6712 37.4348 11.9594 37.661 12.2476 37.859C12.2476 37.859 12.2476 37.859 12.2764 37.859C12.5646 38.0852 12.8529 38.2832 13.1411 38.5094C13.2275 38.5659 13.3428 38.6508 13.4293 38.7073C13.631 38.8487 13.8328 38.9901 14.0345 39.1315C14.1498 39.2163 14.2651 39.2729 14.3804 39.3577C14.5533 39.4708 14.755 39.6122 14.928 39.7253C15.0433 39.8101 15.1585 39.8667 15.3026 39.9515C15.4756 40.0646 15.6773 40.1778 15.8791 40.2909C15.9943 40.3474 16.1096 40.4323 16.2537 40.4888C16.3114 40.5171 16.369 40.5454 16.4267 40.6019C16.6284 40.715 16.859 40.8281 17.0607 40.9412C17.0895 40.9695 17.1184 40.9695 17.1472 40.9978C17.4354 41.1392 17.6948 41.2806 17.983 41.422C18.0406 41.4502 18.0695 41.4785 18.1271 41.5068C18.4153 41.6482 18.7035 41.7896 18.9917 41.9027C19.0494 41.931 19.107 41.9592 19.1646 41.9875C19.4529 42.1289 19.7699 42.242 20.0581 42.3551C20.0869 42.3551 20.1157 42.3834 20.1157 42.3834C20.404 42.4965 20.6922 42.6096 20.9804 42.7227C21.038 42.751 21.0957 42.751 21.1533 42.7793C21.4415 42.8924 21.7585 42.9772 22.0467 43.0621C22.1044 43.0903 22.162 43.0904 22.2197 43.1186C22.5367 43.2035 22.8249 43.2883 23.1419 43.3731H23.1708C23.459 43.458 23.776 43.5145 24.0642 43.5993C24.1219 43.5993 24.1795 43.6276 24.2371 43.6276C24.5253 43.6842 24.8424 43.7407 25.1306 43.7973C25.1882 43.7973 25.2459 43.8256 25.3035 43.8256C25.6205 43.8821 25.9376 43.9104 26.2546 43.967C26.5428 43.9952 26.831 44.0235 27.1481 44.0518C27.2345 44.0518 27.321 44.0518 27.4074 44.0801C27.6092 44.0801 27.8109 44.1083 28.0127 44.1083C28.0991 44.1083 28.2144 44.1083 28.3009 44.1083C28.5026 44.1083 28.7044 44.1083 28.9061 44.1083C28.9926 44.1083 29.0791 44.1083 29.1655 44.1083C29.1943 44.1083 29.2232 44.1083 29.252 44.1083C29.4826 44.1083 29.7419 44.0801 29.9725 44.0801C30.0013 44.0801 30.0013 44.0801 30.0302 44.0801C30.2895 44.1083 30.5201 44.0801 30.7507 44.0518Z" fill="var(--fill-0, black)" stroke="var(--stroke-0, black)" stroke-width="0.205656" stroke-miterlimit="10"/>
</g>
</svg>
