<svg preserveAspectRatio="none" width="100%" height="100%" overflow="visible" style="display: block;" viewBox="0 0 13.5 13.5" fill="none" xmlns="http://www.w3.org/2000/svg">
<path id="Icon" d="M6.75 13.5C6.53333 13.5 6.35433 13.4293 6.213 13.288C6.071 13.146 6 12.9667 6 12.75V7.5H0.75C0.533333 7.5 0.354333 7.429 0.213 7.287C0.0709998 7.14567 0 6.96667 0 6.75C0 6.53333 0.0709998 6.354 0.213 6.212C0.354333 6.07067 0.533333 6 0.75 6H6V0.75C6 0.533333 6.071 0.354333 6.213 0.213C6.35433 0.0709998 6.53333 0 6.75 0C6.96667 0 7.146 0.0709998 7.288 0.213C7.42933 0.354333 7.5 0.533333 7.5 0.75V6H12.75C12.9667 6 13.146 6.07067 13.288 6.212C13.4293 6.354 13.5 6.53333 13.5 6.75C13.5 6.96667 13.4293 7.14567 13.288 7.287C13.146 7.429 12.9667 7.5 12.75 7.5H7.5V12.75C7.5 12.9667 7.42933 13.146 7.288 13.288C7.146 13.4293 6.96667 13.5 6.75 13.5Z" fill="var(--fill-0, #334155)"/>
</svg>
