<svg preserveAspectRatio="none" width="100%" height="100%" overflow="visible" style="display: block;" viewBox="0 0 14.3037 12.6366" fill="none" xmlns="http://www.w3.org/2000/svg">
<g id="Group">
<path id="Vector" d="M12.729 11.4295C12.556 11.5709 12.3255 11.5991 12.1237 11.5143L8.05998 9.6197C7.97352 9.59142 7.85823 9.59142 7.80059 9.64797L4.515 12.504C4.34208 12.6454 4.11151 12.6737 3.90976 12.5888C3.8233 12.5323 3.73684 12.4757 3.67919 12.3909C3.62155 12.3061 3.62155 12.2212 3.65037 12.1081L4.45736 8.0927C4.45736 8.06443 4.45736 8.00787 4.42854 7.97959C4.39972 7.95132 4.3709 7.92304 4.34207 7.89476L0.27832 5.97188C0.191857 5.91533 0.105394 5.85877 0.0477522 5.77394C-0.00988972 5.68911 -0.00988983 5.60427 0.0189311 5.49116C0.0477521 5.29322 0.220678 5.15183 0.451246 5.12355L5.00496 4.558C5.09142 4.558 5.17788 4.47317 5.2067 4.38833L5.98487 0.372911C6.01369 0.174968 6.18662 0.0335797 6.41718 0.00530205C6.64775 -0.0229756 6.8495 0.0618573 6.93596 0.259801L8.95343 3.90762C8.98225 3.99245 9.09753 4.02073 9.184 4.02073L13.7377 3.4269C13.9683 3.39862 14.17 3.48345 14.2565 3.68139C14.3429 3.85106 14.3141 4.07728 14.1412 4.19039L10.8556 7.01815C10.798 7.07471 10.7691 7.15954 10.798 7.24438L12.8154 10.8922C12.9307 11.0901 12.9019 11.2881 12.729 11.4295ZM12.2678 11.2881C12.3831 11.3446 12.4696 11.2881 12.5272 11.2598C12.5849 11.2032 12.6137 11.1184 12.5849 11.0336L10.5674 7.38576C10.4809 7.2161 10.5098 6.98988 10.6827 6.84849L13.9683 3.99245C14.0547 3.90761 14.0547 3.82278 14.0259 3.76623C13.9971 3.70967 13.9106 3.65312 13.7953 3.65312L9.24164 4.24695C9.01107 4.27522 8.80932 4.19039 8.72286 3.99245L6.70539 0.344634C6.64775 0.259801 6.56129 0.231523 6.47483 0.231523C6.38836 0.231523 6.3019 0.288078 6.3019 0.401189L5.49491 4.41661C5.46609 4.61456 5.29317 4.75594 5.0626 4.78422L0.508888 5.37805C0.393604 5.40633 0.335962 5.46288 0.307141 5.54772C0.307141 5.57599 0.307141 5.63255 0.335962 5.66083C0.364783 5.68911 0.393604 5.71738 0.422425 5.74566L4.48618 7.64026C4.57264 7.69682 4.65911 7.75337 4.71675 7.8382C4.77439 7.92304 4.77439 8.00787 4.74557 8.12098L3.93858 12.1364C3.93858 12.193 3.93858 12.2212 3.9674 12.2495C3.99622 12.2778 4.02504 12.3061 4.05387 12.3343C4.11151 12.3626 4.22679 12.3626 4.31325 12.3061L7.62766 9.45003C7.80059 9.30864 8.03116 9.28036 8.2329 9.3652L12.2678 11.2881Z" fill="var(--fill-0, black)"/>
</g>
</svg>
