<svg preserveAspectRatio="none" width="100%" height="100%" overflow="visible" style="display: block;" viewBox="0 0 1.84444 1.69636" fill="none" xmlns="http://www.w3.org/2000/svg">
<g id="Group">
<path id="Vector" d="M1.84444 0.452148L0.662782 1.63981C0.633961 1.66809 0.576319 1.69636 0.518677 1.69636L1.70034 0.508705C1.75798 0.480427 1.81562 0.480426 1.84444 0.452148Z" fill="var(--fill-0, black)"/>
<path id="Vector_2" d="M1.7005 0.480385L0.518838 1.66804C0.490017 1.66804 0.490017 1.66804 0.461197 1.66804C0.403555 1.66804 0.345911 1.63977 0.288269 1.61149L1.46993 0.423828C1.52757 0.452106 1.58522 0.480385 1.64286 0.480385C1.67168 0.480385 1.7005 0.480385 1.7005 0.480385Z" fill="var(--fill-0, black)"/>
<path id="Vector_3" d="M1.47004 0.424675L0.288378 1.61234C0.259557 1.58406 0.201917 1.55578 0.173096 1.5275L1.35476 0.339844C1.4124 0.368121 1.44122 0.396398 1.47004 0.424675Z" fill="var(--fill-0, black)"/>
<path id="Vector_4" d="M1.35455 0.339348L0.172885 1.52701C0.115243 1.47045 0.0576012 1.38562 0.0287802 1.32906L1.21044 0.141403C1.23926 0.226236 1.2969 0.282792 1.35455 0.339348Z" fill="var(--fill-0, black)"/>
<path id="Vector_5" d="M1.21048 0.141388L0.0288227 1.32905C1.75866e-06 1.27249 0 1.21594 0 1.18766L1.18166 0C1.18166 0.0282776 1.21048 0.0848329 1.21048 0.141388Z" fill="var(--fill-0, black)"/>
</g>
</svg>
