<svg preserveAspectRatio="none" width="100%" height="100%" overflow="visible" style="display: block;" viewBox="0 0 13.6323 13.0643" fill="none" xmlns="http://www.w3.org/2000/svg">
<g id="Group">
<path id="Vector" d="M8.15661 12.9513C8.01251 12.9513 7.89722 12.8948 7.83958 12.7817L5.36098 9.10557C5.27452 8.99246 5.15924 8.93591 5.01513 8.93591C4.98631 8.93591 4.95749 8.93591 4.95749 8.93591L0.634341 9.6994C0.60552 9.6994 0.5767 9.6994 0.5767 9.6994C0.461416 9.6994 0.346135 9.64284 0.259672 9.52973C0.20203 9.47318 0.202026 9.38835 0.202026 9.33179C0.202026 9.24696 0.230848 9.1904 0.28849 9.13385L3.08412 6.07986C3.14176 6.02331 3.14177 5.96675 3.14177 5.9102C3.14177 5.85364 3.11294 5.76881 3.08412 5.71225L0.605522 2.03616C0.547881 1.97961 0.547881 1.89477 0.547881 1.83822C0.547881 1.75339 0.576699 1.69683 0.634341 1.64028C0.691983 1.55544 0.807269 1.52716 0.893732 1.52716C0.951374 1.52716 1.00902 1.52716 1.03784 1.55544L5.24569 3.33693C5.30334 3.36521 5.36098 3.36521 5.41862 3.36521C5.50509 3.36521 5.59155 3.33693 5.64919 3.28038L8.44482 0.226394C8.50247 0.169839 8.58893 0.113281 8.70421 0.113281C8.76185 0.113281 8.81949 0.113283 8.84831 0.141561C8.99242 0.198116 9.07888 0.339503 9.07888 0.480891L8.87714 4.66598C8.87714 4.80737 8.9636 4.94876 9.10771 5.00531L13.3156 6.7868C13.4885 6.87164 13.5461 7.01302 13.5461 7.12613C13.5461 7.2958 13.4308 7.40891 13.2579 7.43719L8.93478 8.20069C8.79067 8.22896 8.70421 8.34207 8.67539 8.45518L8.47365 12.612C8.47365 12.7534 8.35836 12.8948 8.18544 12.923C8.18544 12.9513 8.18543 12.9513 8.15661 12.9513Z" fill="var(--fill-0, white)"/>
<path id="Vector_2" d="M8.67511 0.282776C8.70393 0.282776 8.73275 0.282778 8.76158 0.311056C8.84804 0.339333 8.90568 0.424165 8.90568 0.508998L8.70393 4.66581C8.70393 4.86375 8.81922 5.0617 9.02096 5.14653L13.2288 6.92802C13.3441 6.98458 13.3729 7.06941 13.3729 7.12596C13.3729 7.18252 13.3153 7.26735 13.2288 7.29563L8.90568 8.05913C8.70393 8.0874 8.55983 8.25707 8.53101 8.45501L8.32926 12.6118C8.32926 12.7249 8.2428 12.7815 8.18516 12.7815H8.15633C8.09869 12.7815 8.01223 12.7532 7.95459 12.6684L5.47598 8.99229C5.3607 8.8509 5.18778 8.73779 5.01485 8.73779C4.98603 8.73779 4.95721 8.73779 4.92839 8.73779L0.605242 9.50129C0.576421 9.50129 0.576419 9.50129 0.576419 9.50129C0.489956 9.50129 0.403494 9.44473 0.374673 9.38817C0.345852 9.3599 0.345851 9.30334 0.345851 9.27507C0.345851 9.24679 0.374675 9.19023 0.403496 9.16195L3.19913 6.10797C3.25677 6.02314 3.31441 5.9383 3.31441 5.85347C3.31441 5.76864 3.28559 5.65553 3.22795 5.57069L0.749347 1.8946C0.720526 1.86632 0.720524 1.80977 0.720524 1.78149C0.720524 1.72494 0.749344 1.69666 0.778165 1.66838C0.806986 1.6401 0.864628 1.61182 0.92227 1.61182C0.951091 1.61182 0.979913 1.61183 1.00873 1.6401L5.2166 3.4216C5.27424 3.44987 5.3607 3.47815 5.44716 3.47815C5.59127 3.47815 5.70655 3.42159 5.79302 3.33676L8.58865 0.282776C8.55983 0.311054 8.61747 0.282776 8.67511 0.282776ZM8.67511 0C8.53101 0 8.41572 0.056557 8.30044 0.169668L5.50481 3.19537C5.47599 3.22365 5.41834 3.25193 5.3607 3.25193C5.33188 3.25193 5.30306 3.25193 5.24541 3.22365L1.03756 1.44216C0.979915 1.41388 0.893453 1.3856 0.835811 1.3856C0.691706 1.3856 0.576421 1.44216 0.461137 1.52699C0.374674 1.61182 0.345851 1.72493 0.345851 1.80977C0.345851 1.92288 0.374673 2.00771 0.432314 2.09254L2.91092 5.76864C2.93974 5.79691 2.93974 5.85347 2.93974 5.88175C2.93974 5.91003 2.93974 5.93831 2.91092 5.96658L0.115286 9.02056C0.0288236 9.1054 0 9.19023 0 9.30334C0 9.41645 0.0288218 9.50128 0.0864638 9.58612C0.201748 9.7275 0.345852 9.81234 0.518778 9.81234C0.547599 9.81234 0.576421 9.81234 0.605242 9.81234L4.92839 9.04884H4.95721C5.04367 9.04884 5.13013 9.1054 5.18777 9.16195L7.66638 12.838C7.75284 12.9794 7.92577 13.0643 8.09869 13.0643C8.12751 13.0643 8.15634 13.0643 8.18516 13.0643C8.41572 13.0077 8.55983 12.838 8.58865 12.6118L8.79039 8.45501C8.79039 8.39846 8.84804 8.3419 8.90568 8.31362L13.2288 7.55013C13.4594 7.52185 13.6035 7.32391 13.6323 7.12596C13.6323 6.92802 13.517 6.73008 13.3153 6.64524L9.10743 4.86375C9.02096 4.83547 8.96332 4.75064 8.96332 4.66581L9.16507 0.508998C9.16507 0.311055 9.04978 0.113112 8.84804 0.0282794C8.81921 0.0282794 8.73275 0 8.67511 0Z" fill="var(--fill-0, black)"/>
</g>
</svg>
