<svg preserveAspectRatio="none" width="100%" height="100%" overflow="visible" style="display: block;" viewBox="0 0 1.87368 1.3503" fill="none" xmlns="http://www.w3.org/2000/svg">
<g id="Group">
<path id="Vector" d="M2.15232e-05 0.593861L1.41225 1.32908C1.46989 1.35736 1.49871 1.35736 1.55635 1.32908L0.144126 0.593861C0.0864844 0.622139 0.0288425 0.622139 2.15232e-05 0.593861Z" fill="var(--fill-0, black)"/>
<path id="Vector_2" d="M0.144348 0.593552L1.55657 1.32877C1.58539 1.32877 1.5854 1.32877 1.61422 1.30049C1.67186 1.27222 1.70068 1.24394 1.75832 1.18738L0.346094 0.452164C0.317273 0.508719 0.259631 0.537 0.201989 0.565277C0.173168 0.593555 0.144348 0.593552 0.144348 0.593552Z" fill="var(--fill-0, black)"/>
<path id="Vector_3" d="M0.317139 0.480316L1.72937 1.21553C1.75819 1.18725 1.78701 1.15898 1.81583 1.10242L0.4036 0.367203C0.374779 0.423759 0.34596 0.452039 0.317139 0.480316Z" fill="var(--fill-0, black)"/>
<path id="Vector_4" d="M0.403809 0.367835L1.81604 1.10306C1.84486 1.0465 1.87368 0.961666 1.87368 0.876833L0.461452 0.141617C0.461452 0.22645 0.43263 0.31128 0.403809 0.367835Z" fill="var(--fill-0, black)"/>
<path id="Vector_5" d="M0.461158 0.141388L1.87339 0.876604C1.87339 0.820049 1.87338 0.791771 1.84456 0.735216L0.432338 0C0.461159 0.0565553 0.461158 0.113111 0.461158 0.141388Z" fill="var(--fill-0, black)"/>
</g>
</svg>
