<svg preserveAspectRatio="none" width="100%" height="100%" overflow="visible" style="display: block;" viewBox="0 0 1.6143 1.3009" fill="none" xmlns="http://www.w3.org/2000/svg">
<g id="Group">
<path id="Vector" d="M1.61418 0.113238L0.432519 1.3009C0.403698 1.3009 0.403699 1.27262 0.374878 1.27262L1.55653 0.0849609C1.58536 0.0849609 1.58536 0.0849605 1.61418 0.113238Z" fill="var(--fill-0, black)"/>
<path id="Vector_2" d="M1.55667 0.0847448L0.375009 1.2724C0.317367 1.24413 0.259724 1.21585 0.202082 1.21585C0.173261 1.21585 0.173262 1.21585 0.144441 1.21585L1.3261 0.0281883C1.35492 0.0281883 1.35492 0.0281883 1.38374 0.0281883C1.44138 0.0281883 1.49902 0.0281896 1.55667 0.0847448Z" fill="var(--fill-0, black)"/>
<path id="Vector_3" d="M1.32577 0L0.144105 1.18766C0.0864629 1.18766 0.028821 1.21594 0 1.24422L1.18166 0.0565566C1.2393 0.0282789 1.26812 0 1.32577 0Z" fill="var(--fill-0, black)"/>
</g>
</svg>
