<svg preserveAspectRatio="none" width="100%" height="100%" overflow="visible" style="display: block;" viewBox="0 0 120.673 23.5693" fill="none" xmlns="http://www.w3.org/2000/svg">
<g id="Group 17">
<path id="Vector" d="M13.7656 5.21476H25.156V8.46725H18.279V10.1502H23.6865V13.2793H18.279V14.9622H25.2343V18.2147H13.7656V5.21309V5.21476ZM54.1131 18.2164H58.7117V5.00627L54.1465 6.62251L54.1131 18.2164ZM39.4452 15.3609C40.3026 17.5892 42.8595 18.6501 46.6691 18.6501C50.4787 18.6501 52.8322 17.0922 52.8322 14.3384C52.8322 9.56643 44.7426 10.749 44.7426 9.00767C44.7426 8.50228 45.3281 8.12032 46.3622 8.12032C47.7966 8.12032 48.5839 8.58067 48.8741 9.50638L52.5303 8.12366C52.0716 6.3056 50.2402 4.91954 46.2288 4.91954C42.8495 4.91954 40.3526 6.37899 40.3526 9.05437C40.3526 14.0315 48.4421 12.7489 48.4421 14.5869C48.4421 15.1424 47.8684 15.4743 46.6407 15.4743C44.7977 15.4743 43.5667 15.0156 43.068 13.9948L39.4436 15.3592L39.4452 15.3609ZM7.75762 14.5286L4.51514 15.7412V18.2181H1.52588e-05V5.2181H7.03207C10.6865 5.2181 12.5079 6.78763 12.5079 9.5731C12.5079 12.3586 10.4997 13.5228 7.75762 14.5286ZM6.34488 8.46725H4.51514V12.3669L6.22478 11.6764C7.31896 11.2661 7.93443 10.7824 7.93443 9.77492C7.93443 8.94595 7.35065 8.46725 6.34654 8.46725H6.34488ZM34.8033 14.5286L31.5609 15.7412V18.2181H27.0457V5.2181H34.0778C37.7323 5.2181 39.5536 6.78763 39.5536 9.5731C39.5536 12.3586 37.5454 13.5228 34.8033 14.5286ZM33.3906 8.46725H31.5609V12.3669L33.2705 11.6764C34.3647 11.2661 34.9801 10.7824 34.9801 9.77492C34.9801 8.94595 34.3964 8.46725 33.3923 8.46725H33.3906Z" fill="var(--fill-0, #1E293B)"/>
<g id="Group 16">
<path id="Union" d="M119.787 2.98955e-07C120.499 2.59754e-07 120.919 0.799625 120.515 1.38672L115.18 9.13574V18.2686C115.18 21.1963 112.806 23.5693 109.878 23.5693H69.0464C66.1187 23.5693 63.7448 21.1963 63.7447 18.2686V5.30176C63.7447 2.3739 66.1186 2.98955e-07 69.0464 2.98955e-07H119.787Z" fill="var(--fill-0, #0025FF)"/>
<g id="chat">
<path id="Vector_2" d="M103.21 16.8059V9.41731H99.7476V6.66469H110.077V9.41731H106.629V16.8059H103.21Z" fill="var(--fill-0, white)"/>
<path id="Vector_3" d="M90.2348 16.8059L93.8711 6.66469H97.9711L101.607 16.8059H98.1015L97.5654 15.2558H94.0739L93.5379 16.8059H90.2348ZM94.8708 12.8508H96.7686L95.8269 9.73604L94.8708 12.8508Z" fill="var(--fill-0, white)"/>
<path id="Vector_4" d="M80.0736 16.8059V6.66469H83.4926V10.2286H86.4771V6.66469H89.8961V16.8059H86.4771V12.9957H83.4926V16.8059H80.0736Z" fill="var(--fill-0, white)"/>
<path id="Vector_5" d="M74.5039 17.0377C74.05 17.0377 73.6202 16.9991 73.2146 16.9218C72.8089 16.8446 72.4274 16.7335 72.07 16.5886C71.7223 16.4341 71.4036 16.2458 71.1139 16.0236C70.8241 15.8015 70.5633 15.5455 70.3315 15.2558C70.1094 14.966 69.9211 14.6425 69.7665 14.2851C69.612 13.9278 69.4913 13.5366 69.4043 13.1116C69.3271 12.6867 69.2884 12.2279 69.2884 11.7353C69.2884 11.3103 69.3174 10.9095 69.3754 10.5328C69.443 10.1465 69.5347 9.78916 69.6506 9.46077C69.7762 9.13239 69.9259 8.83298 70.0997 8.56255C70.2736 8.28246 70.4716 8.03134 70.6937 7.8092C70.9255 7.5774 71.1766 7.3794 71.4471 7.21521C71.7272 7.04136 72.0266 6.89649 72.3453 6.78059C72.664 6.66469 73.0021 6.57776 73.3594 6.51981C73.7264 6.46186 74.108 6.43289 74.5039 6.43289C75.6726 6.43289 76.6819 6.68883 77.5318 7.20072C78.3914 7.70296 79.0675 8.43216 79.5601 9.38834L76.4308 10.9095C76.228 10.3204 75.972 9.90989 75.6629 9.67809C75.3539 9.43663 74.9917 9.3159 74.5764 9.3159C74.0259 9.3159 73.5912 9.50907 73.2725 9.8954C72.9634 10.2721 72.8089 10.8854 72.8089 11.7353C72.8089 12.5949 72.9634 13.2179 73.2725 13.6042C73.5912 13.9809 74.021 14.1692 74.5619 14.1692C74.9772 14.1692 75.3394 14.0485 75.6485 13.807C75.9672 13.5656 76.228 13.1503 76.4308 12.5611L79.5601 14.0823C79.0675 15.0385 78.3914 15.7725 77.5318 16.2844C76.6819 16.7866 75.6726 17.0377 74.5039 17.0377Z" fill="var(--fill-0, white)"/>
</g>
</g>
</g>
</svg>
