<svg preserveAspectRatio="none" width="100%" height="100%" overflow="visible" style="display: block;" viewBox="0 0 1.64261 1.27256" fill="none" xmlns="http://www.w3.org/2000/svg">
<g id="Group">
<path id="Vector" d="M1.64261 8.32083e-05L0.460949 1.18775C0.432128 1.21602 0.374485 1.2443 0.288022 1.2443L1.46968 0.0566398C1.55615 0.0849174 1.61379 0.0566385 1.64261 8.32083e-05Z" fill="var(--fill-0, black)"/>
<path id="Vector_2" d="M1.46983 0.0848985L0.288173 1.27256C0.259352 1.27256 0.259353 1.27256 0.230532 1.27256C0.17289 1.27256 0.115251 1.24428 0.0576087 1.216L1.23927 0.0283419C1.29691 0.0566195 1.35455 0.0848985 1.41219 0.0848985C1.44101 0.0848985 1.46983 0.0848985 1.46983 0.0848985Z" fill="var(--fill-0, black)"/>
<path id="Vector_3" d="M1.2393 0.0282772L0.0576454 1.21594C0.0288245 1.21594 0.028821 1.18766 0 1.18766L1.18166 0C1.21048 0 1.2393 -4.31904e-07 1.2393 0.0282772Z" fill="var(--fill-0, black)"/>
</g>
</svg>
