<svg preserveAspectRatio="none" width="100%" height="100%" overflow="visible" style="display: block;" viewBox="0 0 24.4386 33" fill="none" xmlns="http://www.w3.org/2000/svg">
<g id="Group 5">
<path id="Vector" d="M11.8074 33H11.5625C5.187 33 0 27.795 0 21.3974V13.3077H11.8074C17.2179 13.3077 21.6196 17.7247 21.6196 23.1538C21.6196 28.583 17.2179 33 11.8074 33ZM4.70153 18.0256V21.3975C4.70153 25.1938 7.77916 28.2822 11.5625 28.2822H11.8074C14.6257 28.2822 16.9181 25.9818 16.9181 23.1539C16.9181 20.326 14.6257 18.0256 11.8074 18.0256H4.70153V18.0256Z" fill="var(--fill-0, #1825AA)"/>
<path id="Vector_2" d="M15.4569 18.0256H4.70212V10.5737C4.70212 4.74335 9.42915 0 15.2393 0H15.4569C20.4093 0 24.4386 4.04317 24.4386 9.01269C24.4386 13.9824 20.4093 18.0256 15.4569 18.0256ZM9.40365 13.3077H15.4569C17.8171 13.3077 19.737 11.3812 19.737 9.01269C19.737 6.64426 17.8171 4.71776 15.4569 4.71776H15.2393C12.0216 4.71776 9.40365 7.34481 9.40365 10.5737V13.3077Z" fill="var(--fill-0, #E11383)"/>
</g>
</svg>
