<svg preserveAspectRatio="none" width="100%" height="100%" overflow="visible" style="display: block;" viewBox="0 0 19.7416 18.3595" fill="none" xmlns="http://www.w3.org/2000/svg">
<g id="Group">
<path id="Vector" d="M10.7929 18.1896C10.3318 18.1896 9.84182 18.1613 9.35187 18.1047C3.99117 17.3695 -0.130231 12.7603 0.157978 7.83995C0.417367 3.45692 4.16409 0.148438 8.91955 0.148438C9.38069 0.148438 9.87065 0.176712 10.3606 0.233267C15.7213 0.968485 19.8427 5.57774 19.5545 10.498C19.2951 14.8811 15.5484 18.1896 10.7929 18.1896Z" fill="var(--fill-0, #FF1F00)"/>
<path id="Vector_2" d="M8.91973 0.290132C9.38087 0.290132 9.87082 0.318406 10.332 0.374962C15.6062 1.11018 19.6988 5.6346 19.4106 10.4984C19.1512 14.7966 15.4621 18.0485 10.7931 18.0485C10.332 18.0485 9.842 18.0202 9.38087 17.9637C4.10663 17.2284 0.0140549 12.704 0.302264 7.84026C0.561653 3.54206 4.25074 0.290132 8.91973 0.290132ZM8.91973 0.00735599C4.13545 0.00735599 0.273444 3.28756 0.0140549 7.84026C-0.274155 12.8454 3.90489 17.5112 9.35205 18.2464C9.842 18.303 10.332 18.3595 10.8219 18.3595C15.6062 18.3595 19.4682 15.0793 19.7276 10.5266C20.0158 5.52149 15.8368 0.855683 10.3896 0.120465C9.87082 0.0356319 9.38087 -0.0209216 8.91973 0.00735599Z" fill="var(--fill-0, black)"/>
</g>
</svg>
