<svg preserveAspectRatio="none" width="100%" height="100%" overflow="visible" style="display: block;" viewBox="0 0 13.6936 13.1095" fill="none" xmlns="http://www.w3.org/2000/svg">
<g id="Group">
<path id="Vector" d="M8.21397 13.1041C8.01223 13.1324 7.78166 13.0476 7.66638 12.8779L5.18777 9.20181C5.13013 9.11698 5.04367 9.0887 4.95721 9.0887L0.634065 9.8522C0.432318 9.88048 0.201748 9.79564 0.0864637 9.62598C0.0288218 9.54114 0 9.42803 0 9.3432C0 9.25837 0.0288236 9.17354 0.115286 9.0887L2.91092 6.03472C2.93974 6.00644 2.96856 5.94989 2.96856 5.92161C2.96856 5.89333 2.96856 5.83677 2.93974 5.8085L0.461137 2.1324C0.403495 2.04757 0.374673 1.93446 0.374673 1.84963C0.374673 1.76479 0.403497 1.67996 0.48996 1.59513C0.634065 1.45374 0.864632 1.39719 1.06638 1.48202L5.27424 3.26351C5.3607 3.29179 5.47599 3.29179 5.53363 3.20695L8.32926 0.152968C8.47336 0.0115795 8.67511 -0.044974 8.90568 0.0398589C9.10742 0.124692 9.22271 0.322634 9.22271 0.520578L9.02096 4.67739C9.02096 4.76222 9.0786 4.84706 9.16506 4.87534L13.3729 6.65682C13.5747 6.74166 13.7188 6.9396 13.69 7.13755C13.69 7.33549 13.5459 7.50516 13.3153 7.53343L8.99214 8.29693C8.90568 8.32521 8.84804 8.38176 8.84804 8.4666L8.64629 12.6234C8.55982 12.9062 8.41572 13.0758 8.21397 13.1041ZM7.89694 12.7365C7.95459 12.8214 8.06987 12.8496 8.12751 12.8496C8.21398 12.8214 8.27162 12.7931 8.27162 12.68L8.47336 8.52315C8.47336 8.32521 8.61747 8.15554 8.84804 8.12727L13.1712 7.36377C13.2865 7.33549 13.3153 7.25066 13.3153 7.1941C13.3153 7.10927 13.2865 7.02444 13.1712 6.99616L8.96332 5.21467C8.76157 5.12983 8.61747 4.93189 8.64629 4.73395L8.84804 0.577132C8.84804 0.464022 8.7904 0.407467 8.70393 0.37919C8.64629 0.350912 8.53101 0.350911 8.47336 0.435744L5.67773 3.48973C5.53363 3.63112 5.30306 3.68768 5.10131 3.60284L0.893451 1.82135C0.778168 1.7648 0.691706 1.82135 0.634065 1.87791C0.605244 1.90618 0.576419 1.93446 0.576419 1.99101C0.576419 2.01929 0.576421 2.07585 0.605242 2.10413L3.08385 5.78022C3.14149 5.86505 3.17031 5.97816 3.17031 6.063C3.17031 6.14783 3.14149 6.26094 3.05502 6.31749L0.259391 9.37148C0.23057 9.39976 0.20175 9.45631 0.20175 9.48459C0.20175 9.54114 0.201748 9.56942 0.230569 9.5977C0.259389 9.65426 0.345853 9.71081 0.461137 9.71081L4.78428 8.94731C4.98603 8.91904 5.21659 9.00387 5.33188 9.17354L7.89694 12.7365Z" fill="var(--fill-0, black)"/>
</g>
</svg>
