<svg preserveAspectRatio="none" width="100%" height="100%" overflow="visible" style="display: block;" viewBox="0 0 25.5166 25.0257" fill="none" xmlns="http://www.w3.org/2000/svg">
<g id="Group">
<path id="Vector" d="M24.3789 24.9128C24.3501 24.9128 24.2924 24.8845 24.2059 24.8562L15.5597 18.7482C15.4732 18.6917 15.3579 18.6351 15.2715 18.6351C15.2426 18.6351 15.2426 18.6351 15.2138 18.6351C15.1273 18.6351 15.0409 18.6634 14.9832 18.72L9.13258 23.0464C9.10376 23.0464 9.10376 23.0747 9.07494 23.0747C8.90202 23.0464 8.70027 22.8768 8.72909 22.7071L9.24787 14.5914C9.24787 14.3935 9.13258 14.1955 8.95966 14.0542L0.31337 7.94619C0.169266 7.83308 0.111624 7.69169 0.140445 7.63513C0.140445 7.60686 0.140444 7.57858 0.226907 7.57858L9.21905 8.65313C9.24787 8.65313 9.24787 8.65313 9.27669 8.65313C9.47844 8.65313 9.65136 8.51174 9.65136 8.3138L10.1701 0.198114C10.1701 0.169836 10.1701 0.113281 10.2566 0.113281C10.3719 0.113281 10.516 0.198114 10.5736 0.339502L15.5885 9.13385C15.7038 9.33179 15.9055 9.47318 16.1073 9.50146L25.0706 10.576C25.2147 10.6043 25.3588 10.6608 25.3876 10.774C25.4164 10.8305 25.4164 10.9153 25.3588 11.0002L19.5081 15.3549C19.3352 15.468 19.3352 15.6943 19.4505 15.9205L24.4653 24.7148C24.523 24.7997 24.523 24.8562 24.4942 24.8845C24.4653 24.9128 24.4365 24.9128 24.3789 24.9128Z" fill="var(--fill-0, white)"/>
<path id="Vector_2" d="M10.3144 0.282776C10.3721 0.311054 10.4297 0.339332 10.4585 0.424164L15.4734 9.21851C15.6175 9.44473 15.8481 9.6144 16.0786 9.64267L25.0419 10.7172C25.1572 10.7172 25.2437 10.7738 25.2437 10.8303C25.2437 10.8586 25.2437 10.8869 25.2149 10.9152L19.393 15.2416C19.1625 15.4113 19.1336 15.7224 19.2777 15.9769L24.2638 24.7146L15.6175 18.6067C15.5022 18.5219 15.3869 18.4653 15.2428 18.4653C15.214 18.4653 15.1852 18.4653 15.1563 18.4653C15.0411 18.4653 14.9258 18.4936 14.8393 18.5784L8.98867 22.9049C8.9022 22.9049 8.78692 22.7635 8.78692 22.7069L9.3057 14.5913C9.33452 14.365 9.19041 14.0823 8.95984 13.9409L0.313557 7.8329C0.255915 7.80463 0.227094 7.77635 0.227094 7.74807L9.10395 8.82262C9.13277 8.82262 9.16159 8.82262 9.19041 8.82262C9.47862 8.82262 9.68037 8.62468 9.70919 8.3419L10.3144 0.282776ZM10.2568 0C10.1415 0 10.0262 0.0565555 10.0262 0.197944L9.50744 8.31362C9.50744 8.42673 9.42098 8.51157 9.27687 8.51157H9.24805L0.284737 7.43702C0.255916 7.43702 0.255915 7.43702 0.227094 7.43702C-0.061116 7.43702 -0.089937 7.8329 0.227094 8.05913L8.87338 14.1671C9.01749 14.2802 9.10395 14.4499 9.10395 14.5913L8.58517 22.7069C8.55635 22.9332 8.81574 23.1877 9.04631 23.2159H9.07513C9.13277 23.2159 9.19041 23.1877 9.21923 23.1594L15.0699 18.8046C15.0987 18.7763 15.1564 18.7481 15.214 18.7481H15.2428C15.3293 18.7481 15.3869 18.7763 15.4734 18.8329L24.1197 24.9409C24.2061 24.9974 24.2638 25.0257 24.3502 25.0257H24.3791C24.5808 25.0257 24.6961 24.856 24.552 24.6015L19.5371 15.8072C19.4507 15.6658 19.4507 15.4961 19.566 15.4396L25.4166 11.0848C25.676 10.7455 25.3878 10.4627 25.0419 10.4344L16.0786 9.3599C15.9345 9.33162 15.7616 9.21851 15.6751 9.07712L10.6603 0.282776C10.5738 0.113111 10.4009 0.0282776 10.2568 0Z" fill="var(--fill-0, black)"/>
</g>
</svg>
