<svg preserveAspectRatio="none" width="100%" height="100%" overflow="visible" style="display: block;" viewBox="0 0 1.78688 0.905231" fill="none" xmlns="http://www.w3.org/2000/svg">
<g id="Group">
<path id="Vector" d="M0.00012207 0.169923L1.41235 0.905143C1.41235 0.876866 1.44117 0.876866 1.44117 0.848589L0.0289426 0.113369C0.0289426 0.141646 0.028943 0.169923 0.00012207 0.169923Z" fill="var(--fill-0, black)"/>
<path id="Vector_2" d="M0.0577391 0.141388L1.46997 0.876604C1.49879 0.820049 1.55643 0.791773 1.61407 0.763495C1.64289 0.763495 1.64289 0.763494 1.67171 0.735216L0.259486 0C0.230665 0 0.230665 -2.58932e-06 0.201844 0.028275C0.144202 0.0565527 0.08656 0.0848329 0.0577391 0.141388Z" fill="var(--fill-0, black)"/>
<path id="Vector_3" d="M0.230549 0L1.64278 0.735216C1.70042 0.735216 1.72924 0.735216 1.78688 0.735216L0.374654 0C0.317012 0 0.288191 0 0.230549 0Z" fill="var(--fill-0, black)"/>
</g>
</svg>
