<svg preserveAspectRatio="none" width="100%" height="100%" overflow="visible" style="display: block;" viewBox="0 0 21.8715 26.383" fill="none" xmlns="http://www.w3.org/2000/svg">
<g id="Group">
<path id="Vector" d="M5.12683 26.2419C5.09801 26.2419 5.09801 26.2419 5.06918 26.2136C5.04036 26.1853 5.04036 26.1288 5.04036 26.0722L6.94255 16.8254C7.00019 16.5992 6.88491 16.4012 6.71198 16.3447L0.256084 14.1108C0.169621 14.0542 0.1408 13.9976 0.169621 13.9128C0.169621 13.828 0.284905 13.7149 0.400189 13.6583L8.06656 10.1519C8.23949 10.0671 8.3836 9.89739 8.41242 9.67117L10.3146 0.424378C10.3434 0.28299 10.4299 0.198156 10.5163 0.169879C10.5452 0.169879 10.574 0.141602 10.574 0.141602C10.574 0.141602 10.6028 0.141601 10.6316 0.169879L13.4849 7.26757C13.5425 7.40896 13.6578 7.49379 13.8019 7.49379C13.8596 7.49379 13.9172 7.49379 13.9749 7.46551L21.6412 3.95908C21.6701 3.95908 21.6989 3.93081 21.6989 3.93081C21.6989 3.93081 21.7277 3.93081 21.7565 3.95908C21.7853 4.01564 21.7853 4.15703 21.6989 4.27014L15.7906 12.1596C15.6465 12.3293 15.6177 12.5555 15.6753 12.7252L18.5286 19.8228C18.5862 19.9642 18.4709 20.1622 18.3268 20.2187C18.298 20.2187 18.298 20.2187 18.2692 20.2187L11.7268 17.9848C11.698 17.9848 11.6404 17.9565 11.6115 17.9565C11.5539 17.9565 11.4963 17.9565 11.4386 17.9848C11.3522 18.0131 11.2657 18.0979 11.208 18.1827L5.29975 26.1288C5.24211 26.1853 5.21329 26.2136 5.18447 26.2419C5.15565 26.2419 5.15565 26.2419 5.12683 26.2419Z" fill="var(--fill-0, white)"/>
<path id="Vector_2" d="M10.5165 0.339333L13.3409 7.35219C13.4274 7.55013 13.6003 7.66324 13.802 7.66324C13.8885 7.66324 13.975 7.63496 14.0326 7.60668L21.6125 4.15681C21.6125 4.18509 21.5837 4.21337 21.5837 4.21337L15.6754 12.1028C15.5025 12.329 15.4737 12.5835 15.5601 12.8098L18.4134 19.9075C18.4422 19.964 18.3846 20.0771 18.2981 20.1337L11.7846 17.8997C11.7269 17.8715 11.6693 17.8715 11.6116 17.8715C11.5252 17.8715 11.4387 17.8997 11.3811 17.928C11.2658 17.9846 11.1793 18.0694 11.0929 18.1542L5.2134 25.9589L7.08676 16.8252C7.1444 16.5141 7.02912 16.2596 6.76973 16.1748L0.342653 13.9692C0.313832 13.9409 0.313833 13.9409 0.313833 13.9126C0.313833 13.8843 0.371475 13.8278 0.457938 13.7712L8.12431 10.2931C8.32606 10.2082 8.49898 9.98201 8.55663 9.72751L10.4588 0.480721C10.4588 0.395888 10.4876 0.367611 10.5165 0.339333ZM10.5741 0C10.5453 0 10.4876 -4.31904e-07 10.4588 0.0282772C10.3435 0.0848325 10.2282 0.226222 10.1706 0.395887L8.26842 9.64267C8.2396 9.81234 8.12431 9.95373 7.98021 10.0103L0.313833 13.5167C0.0256233 13.6581 -0.147302 13.9692 0.169728 14.2236L6.68326 16.4576C6.79855 16.4859 6.85619 16.6273 6.82737 16.7969L4.92519 26.0437C4.86754 26.2699 4.98283 26.383 5.12693 26.383C5.15575 26.383 5.2134 26.383 5.24222 26.3548C5.29986 26.3265 5.3575 26.2699 5.41514 26.2134L11.3234 18.3239C11.3811 18.2674 11.4387 18.2108 11.4964 18.1825C11.5252 18.1542 11.5828 18.1542 11.6116 18.1542C11.6405 18.1542 11.6693 18.1542 11.6693 18.1542L18.1828 20.3882C18.2116 20.3882 18.2405 20.3882 18.2405 20.3882C18.2693 20.3882 18.3269 20.3882 18.3558 20.3599C18.5575 20.2751 18.7016 19.9923 18.6151 19.7661L15.7619 12.6684C15.7042 12.5553 15.7619 12.3573 15.8483 12.2442L21.7566 4.35476C21.9584 4.10026 21.8719 3.7892 21.6702 3.7892C21.6413 3.7892 21.5837 3.7892 21.5549 3.81748L13.8885 7.32391C13.8597 7.35219 13.802 7.35219 13.7732 7.35219C13.6868 7.35219 13.6291 7.29563 13.5715 7.2108L10.7182 0.113111C10.7182 0.0565557 10.6606 0 10.5741 0Z" fill="var(--fill-0, black)"/>
</g>
</svg>
