<svg preserveAspectRatio="none" width="100%" height="100%" overflow="visible" style="display: block;" viewBox="0 0 14.3665 12.6967" fill="none" xmlns="http://www.w3.org/2000/svg">
<g id="Group">
<path id="Vector" d="M4.16155 12.5555C4.1039 12.5555 4.04626 12.5555 3.98862 12.5272C3.90216 12.499 3.87334 12.4424 3.81569 12.3859C3.78687 12.3293 3.75805 12.2445 3.78687 12.1879L4.59386 8.17249C4.59386 8.11594 4.59386 8.05938 4.56504 8.00283C4.53622 7.94627 4.47858 7.88972 4.42093 7.86144L0.357179 5.96684C0.299537 5.93856 0.241895 5.882 0.184253 5.82545C0.155432 5.76889 0.126611 5.68406 0.155432 5.59923C0.184253 5.48612 0.270716 5.34473 0.472462 5.31645L5.02617 4.72262C5.17028 4.69434 5.31438 4.60951 5.3432 4.46812L6.15019 0.452698C6.17901 0.31131 6.2943 0.1982 6.46722 0.169922C6.49604 0.169922 6.49604 0.169922 6.52487 0.169922C6.66897 0.169922 6.78425 0.226477 6.8419 0.367865L8.85936 4.01568C8.917 4.12879 9.03229 4.18535 9.17639 4.18535C9.20521 4.18535 9.20521 4.18535 9.23403 4.18535L13.7589 3.56324C13.7877 3.56324 13.7877 3.56324 13.8166 3.56324C13.9607 3.56324 14.076 3.61979 14.1336 3.76118C14.2201 3.90257 14.1912 4.04396 14.0471 4.15707L10.7615 7.01311C10.6463 7.09794 10.6174 7.23933 10.6751 7.35244L12.6926 11.0003C12.779 11.1416 12.7502 11.283 12.6061 11.3961C12.5484 11.4527 12.4332 11.481 12.3467 11.481C12.2891 11.481 12.2314 11.481 12.1738 11.4527L8.11002 9.5581C8.05238 9.52982 7.99473 9.52982 7.93709 9.52982C7.85063 9.52982 7.73535 9.5581 7.6777 9.61465L4.39211 12.4707C4.33447 12.5272 4.24801 12.5555 4.16155 12.5555Z" fill="var(--fill-0, white)"/>
<path id="Vector_2" d="M6.49602 0.282776C6.58249 0.282776 6.64013 0.311054 6.69777 0.395887L8.71524 4.0437C8.8017 4.21337 8.97463 4.2982 9.17637 4.2982C9.20519 4.2982 9.23401 4.2982 9.26284 4.2982L13.8165 3.70437H13.8454C13.9318 3.70437 14.0183 3.76093 14.0471 3.81748C14.0759 3.87404 14.0759 3.95887 13.9895 4.0437L10.6462 6.89974C10.4733 7.04113 10.4445 7.23908 10.531 7.43702L12.5484 11.0848C12.6061 11.1697 12.5484 11.2545 12.4908 11.3111C12.462 11.3393 12.4043 11.3676 12.3467 11.3676C12.3179 11.3676 12.289 11.3676 12.2314 11.3393L8.16764 9.44473C8.08118 9.41645 8.02353 9.38818 7.93707 9.38818C7.79297 9.38818 7.67768 9.44473 7.59122 9.52956L4.30563 12.3573C4.24799 12.3856 4.19035 12.4139 4.16153 12.4139C4.1327 12.4139 4.07506 12.4139 4.04624 12.3856C4.01742 12.3573 3.95978 12.3291 3.95978 12.3008C3.93096 12.2725 3.93096 12.2159 3.93096 12.1877L4.73794 8.17224C4.76677 8.0874 4.73794 7.97429 4.70912 7.88946C4.65148 7.80463 4.59384 7.74807 4.47856 7.69152L0.4148 5.79692C0.357159 5.76864 0.328337 5.74036 0.328337 5.71208C0.299516 5.68381 0.299516 5.62725 0.299516 5.59897C0.328337 5.54242 0.357158 5.45758 0.501263 5.42931L5.05497 4.83548C5.28554 4.8072 5.45847 4.66581 5.48729 4.46787L6.26546 0.452442C6.29428 0.339332 6.38074 0.311054 6.43838 0.282776C6.4672 0.282776 6.4672 0.282776 6.49602 0.282776ZM6.49602 0C6.4672 0 6.43838 0 6.43838 0C6.20781 0.0282776 6.03489 0.197944 6.00607 0.395887L5.19908 4.41131C5.17026 4.49614 5.11262 4.5527 4.99733 4.5527L0.443621 5.14653C0.213053 5.17481 0.0689485 5.3162 0.0113066 5.54242C-0.0175144 5.65553 0.0113068 5.76864 0.0689487 5.85347C0.126591 5.9383 0.184232 6.02314 0.299516 6.05142L4.36327 7.94602C4.39209 7.97429 4.44974 8.00257 4.44974 8.03085C4.47856 8.05913 4.47856 8.0874 4.44974 8.11568L3.64275 12.1311C3.61393 12.2442 3.64275 12.3573 3.70039 12.4422C3.75803 12.527 3.81567 12.6118 3.93096 12.6401C4.01742 12.6684 4.10388 12.6967 4.16153 12.6967C4.27681 12.6967 4.39209 12.6401 4.50738 12.5835L7.82179 9.72751C7.87943 9.69923 7.93707 9.67095 7.99471 9.67095C8.02353 9.67095 8.08118 9.67095 8.11 9.69923L12.1738 11.5938C12.2314 11.6221 12.3179 11.6504 12.4043 11.6504C12.5196 11.6504 12.6637 11.5938 12.7502 11.5373C12.9231 11.3959 12.9519 11.1414 12.8655 10.9717L10.848 7.32391C10.8192 7.26735 10.8192 7.2108 10.8768 7.15424L14.1912 4.2982C14.3641 4.15681 14.4218 3.93059 14.3065 3.73265C14.22 3.56298 14.0471 3.47815 13.8742 3.47815C13.8454 3.47815 13.8165 3.47815 13.7877 3.47815L9.23401 4.07198H9.20519C9.11873 4.07198 9.03227 4.0437 9.00345 3.95887L6.98598 0.311054C6.84187 0.113111 6.69777 0 6.49602 0Z" fill="var(--fill-0, black)"/>
</g>
</svg>
