<svg preserveAspectRatio="none" width="100%" height="100%" overflow="visible" style="display: block;" viewBox="0 0 31.2023 32.2031" fill="none" xmlns="http://www.w3.org/2000/svg">
<g id="Group">
<path id="Vector" d="M29.0849 11.0535C29.6064 11.6833 30.1193 12.3016 30.6351 12.9228C30.4613 13.071 30.2989 13.2163 30.1307 13.3588C29.7175 13.7093 29.3072 14.0655 28.8826 14.4075C28.042 15.0942 27.0959 15.5758 26.0302 15.8151C25.3976 15.9605 24.7593 16.0175 24.1124 15.9804C22.833 15.9092 21.6504 15.533 20.6046 14.7836C19.1884 13.7777 18.1825 12.464 17.6496 10.8027C17.5128 10.3753 17.4302 9.93647 17.3846 9.48624C17.339 9.05025 17.3333 8.61712 17.3732 8.18398C17.4615 7.24077 17.7294 6.3517 18.1739 5.51393C18.5244 4.85567 18.9661 4.26296 19.5161 3.75859C19.8381 3.46223 20.18 3.18867 20.5134 2.90372C20.8383 2.63016 21.1603 2.35945 21.4851 2.08874C21.4965 2.07734 21.5136 2.06879 21.5364 2.04884C22.055 2.6843 22.5737 3.3169 23.0951 3.95806C22.9412 4.08059 22.8016 4.18887 22.6677 4.30001C22.2004 4.69325 21.7102 5.06654 21.2771 5.49683C20.5875 6.17788 20.1658 7.01565 19.9606 7.96171C19.7184 9.07305 19.9834 10.0903 20.5533 11.045C21.1004 11.9654 21.847 12.6749 22.8358 13.108C23.2433 13.2876 23.6707 13.3873 24.1153 13.4272C25.3605 13.5355 26.4548 13.1565 27.4322 12.4071C27.8425 12.0907 28.2301 11.7431 28.629 11.4125C28.7743 11.29 28.9225 11.1732 29.0821 11.045" fill="var(--fill-0, #FF7900)"/>
<path id="Vector_2" d="M3.38165 7.58557C3.64951 7.41175 3.90882 7.24077 4.16813 7.07265C4.55567 6.82189 4.94891 6.57682 5.33646 6.32891C5.402 6.28617 5.43904 6.28332 5.48464 6.3574C5.76674 6.80764 6.04885 7.25787 6.33381 7.7024C6.60167 8.12129 6.89518 8.52308 7.25992 8.87073C7.95807 9.53753 8.7759 9.95642 9.7305 10.1074C10.403 10.2129 11.0641 10.1473 11.711 9.93362C12.7368 9.59167 13.5689 8.98186 14.2385 8.13554C14.7173 7.53143 14.9794 6.84468 15.0535 6.08385C15.1504 5.13494 14.9994 4.22022 14.5577 3.3796C14.2499 2.78974 13.8595 2.24262 13.5062 1.67555C13.4407 1.57012 13.3666 1.46753 13.2925 1.35355C13.9564 0.866271 14.6603 0.450233 15.3527 0C15.4268 0.113983 15.498 0.225117 15.5693 0.33625C15.9226 0.897617 16.2845 1.45328 16.6293 2.0175C17.1593 2.88377 17.4671 3.82413 17.5754 4.83003C17.6894 5.89292 17.5754 6.92447 17.2135 7.93037C16.8459 8.95907 16.256 9.84529 15.461 10.5976C14.4266 11.575 13.2098 12.2361 11.8221 12.5552C11.2322 12.6949 10.631 12.7319 10.0269 12.6949C8.92407 12.6293 7.89538 12.3187 6.93792 11.7687C6.06025 11.2615 5.32221 10.5947 4.75514 9.75125C4.35905 9.16424 3.99146 8.55443 3.60961 7.95317C3.53837 7.83348 3.46144 7.7138 3.3845 7.58557" fill="var(--fill-0, #8054A3)"/>
<path id="Vector_3" d="M7.51651 23.0958L7.43387 23.1727C7.21446 23.3295 7.00074 23.4976 6.77847 23.6458C5.84666 24.2584 4.82366 24.6232 3.71518 24.7429C3.01703 24.8169 2.31888 24.8939 1.62074 24.9737C1.56375 24.9794 1.5324 24.9737 1.5267 24.9081C1.45546 24.1501 1.38422 23.3893 1.31013 22.6313C1.30158 22.5544 1.32153 22.5287 1.40417 22.523C1.8886 22.4803 2.37303 22.4347 2.8546 22.3863C3.47866 22.3236 4.08847 22.2067 4.66124 21.936C5.53321 21.5257 6.25415 20.9501 6.76137 20.1208C7.03778 19.6678 7.18596 19.1691 7.27145 18.6505C7.43102 17.6702 7.34269 16.7184 6.96654 15.7952C6.5562 14.7836 5.84666 14.0455 4.87495 13.5583C4.10842 13.1736 3.28774 13.0282 2.43572 13.0881C1.87435 13.1251 1.31298 13.2021 0.751617 13.2619C0.609138 13.2762 0.46381 13.2847 0.321331 13.299C0.264339 13.3047 0.241543 13.2876 0.235843 13.2277C0.181701 12.7205 0.12756 12.2133 0.0734176 11.706C0.0477714 11.4667 0.0278244 11.2273 0.00217818 10.9908C-0.00637055 10.9196 0.00787733 10.8911 0.0876655 10.8825C0.839954 10.7999 1.58939 10.7001 2.34168 10.6318C3.90325 10.4893 5.35653 10.8398 6.67874 11.6804C7.84991 12.4241 8.72758 13.4272 9.27755 14.7066C9.69644 15.6784 9.89876 16.6985 9.90161 17.7557C9.90446 18.7844 9.71638 19.7732 9.29465 20.7136C8.89571 21.5998 8.33434 22.3663 7.6077 23.0132C7.5792 23.0303 7.55071 23.0588 7.51936 23.0901" fill="var(--fill-0, #FFCC07)"/>
<path id="Vector_4" d="M24.5056 28.3248C24.0354 28.9944 23.5738 29.6498 23.1093 30.3138C22.9184 30.1855 22.736 30.0659 22.5565 29.9433C22.1091 29.6356 21.6589 29.3307 21.2172 29.0172C20.3338 28.3846 19.6214 27.601 19.1085 26.635C18.8036 26.0622 18.5785 25.4609 18.4445 24.8283C18.1795 23.5745 18.2308 22.3378 18.6754 21.1267C19.2738 19.4968 20.2768 18.1774 21.7387 17.2285C22.1148 16.9835 22.5194 16.7897 22.9355 16.6244C23.343 16.4677 23.759 16.348 24.1893 16.2711C25.1211 16.1058 26.0501 16.1314 26.9762 16.3423C27.7057 16.5076 28.3924 16.7783 29.0222 17.1772C29.3926 17.4109 29.7488 17.6674 30.1079 17.9153C30.4555 18.1575 30.8032 18.3968 31.1508 18.6391C31.1651 18.6505 31.1793 18.659 31.2021 18.679C30.7234 19.3486 30.2503 20.0126 29.7716 20.6879C29.612 20.5739 29.4724 20.4656 29.3271 20.3659C28.8227 20.0183 28.3354 19.6421 27.8083 19.3372C26.9705 18.8499 26.0529 18.6647 25.0812 18.7132C23.9442 18.773 23.0324 19.2945 22.263 20.0952C21.5192 20.8674 21.032 21.7736 20.8724 22.8393C20.8068 23.281 20.8211 23.7199 20.9009 24.1587C21.1231 25.3897 21.7757 26.3443 22.756 27.0909C23.1691 27.4044 23.6051 27.6865 24.0297 27.9828C24.1864 28.0911 24.3375 28.2022 24.5027 28.3219" fill="var(--fill-0, #7AB700)"/>
<path id="Vector_5" d="M18.5386 32.203C18.2252 32.1375 17.9231 32.0748 17.6211 32.0093C17.168 31.9124 16.7206 31.8069 16.2675 31.7101C16.1906 31.693 16.1621 31.673 16.182 31.5875C16.3017 31.0689 16.4157 30.5503 16.5325 30.0345C16.638 29.5472 16.7149 29.0571 16.7035 28.5556C16.6836 27.5924 16.3986 26.7148 15.8287 25.9368C15.4269 25.3869 14.9111 24.9651 14.3042 24.6631C13.3353 24.1786 12.3152 24.0248 11.2437 24.1473C10.48 24.2356 9.81039 24.5348 9.22053 25.0221C8.47964 25.6262 7.94107 26.3785 7.65896 27.2847C7.45949 27.923 7.34836 28.5841 7.19733 29.2338C7.16883 29.3563 7.14888 29.4788 7.12039 29.6099C6.30541 29.4845 5.51323 29.2822 4.7068 29.1112C4.73529 28.9773 4.76379 28.8491 4.79229 28.7209C4.93761 28.074 5.07724 27.4271 5.23112 26.7803C5.46764 25.7943 5.91502 24.911 6.55047 24.1188C7.22012 23.2867 8.0351 22.6399 8.99826 22.1839C9.98706 21.7166 11.03 21.5057 12.1214 21.5371C13.5462 21.577 14.8684 21.9702 16.0795 22.7225C16.5924 23.0417 17.0483 23.4377 17.4501 23.8937C18.1824 24.7201 18.6925 25.6661 18.9775 26.7319C19.2396 27.7121 19.2909 28.7038 19.0972 29.7011C18.9604 30.3993 18.7923 31.0889 18.6355 31.7842C18.6127 31.9181 18.5785 32.0549 18.5415 32.203" fill="var(--fill-0, #0098DB)"/>
</g>
</svg>
