<svg preserveAspectRatio="none" width="100%" height="100%" overflow="visible" style="display: block;" viewBox="0 0 68 30" fill="none" xmlns="http://www.w3.org/2000/svg">
<g id="Layer_1" clip-path="url(#clip0_959_7564)">
<path id="Vector" d="M17.43 30L17.9317 27.8464C18.6006 24.9739 17.0418 21.134 12.8732 20.1814C8.70454 19.2289 5.60494 22.0038 4.93307 24.8733L4.4314 27.0269L6.70682 27.5476L7.11294 25.8052C7.60863 23.6781 9.56156 21.9091 12.3237 22.5392C15.0859 23.1693 16.0594 25.6069 15.5607 27.7369L15.1546 29.4793L17.43 30Z" fill="var(--fill-0, #1998D5)"/>
<path id="Vector_2" d="M29.1834 17.1729L27.335 15.9363C24.8685 14.2885 20.6909 14.3536 18.299 17.8681C15.9071 21.3825 17.4091 25.246 19.8757 26.8938L21.7241 28.1304L23.029 26.2134L21.533 25.2135C19.7055 23.9917 18.738 21.5511 20.3236 19.223C21.9092 16.8948 24.5549 16.8682 26.3824 18.0899L27.8785 19.0898L29.1834 17.1729Z" fill="var(--fill-0, #79BA43)"/>
<path id="Vector_3" d="M1.39452 23.2137L3.61321 22.9829C6.57246 22.6753 9.72879 19.9655 9.28087 15.7499C8.83295 11.5314 5.17495 9.5316 2.21869 9.84222L0 10.073L0.244862 12.3745L2.04251 12.1881C4.23432 11.9604 6.55753 13.2117 6.85614 16.0043C7.15176 18.797 5.1421 20.5009 2.95029 20.7287L1.15264 20.9151L1.39751 23.2137H1.39452Z" fill="var(--fill-0, #FFCD0C)"/>
<path id="Vector_4" d="M3.16821 7.00227L4.35072 8.87782C5.92739 11.3776 9.77053 13.0017 13.3987 10.7534C17.0298 8.50803 17.2388 4.37235 15.6622 1.87259L14.4796 -0.00296021L12.4998 1.22177L13.4584 2.73937C14.626 4.59126 14.5095 7.20935 12.1057 8.69737C9.70185 10.1854 7.27413 9.14407 6.10656 7.29218L5.14801 5.77458L3.16821 6.99931V7.00227Z" fill="var(--fill-0, #8055A3)"/>
<path id="Vector_5" d="M20.2638 1.89035L18.5527 3.31033C16.2743 5.20659 15.1844 9.20028 17.9376 12.4485C20.6878 15.6967 24.8505 15.3299 27.1289 13.4336L28.837 12.0136L27.3379 10.2416L25.9553 11.3924C24.2652 12.7976 21.6344 13.0431 19.8129 10.8924C17.9914 8.74174 18.6931 6.21537 20.3832 4.81018L21.7658 3.6594L20.2638 1.88739V1.89035Z" fill="var(--fill-0, #F47820)"/>
<path id="Vector_6" d="M67.1101 18.1668C67.5073 18.1668 67.8089 18.4923 67.8089 18.8916C67.8089 19.291 67.5103 19.6164 67.1161 19.6105C66.707 19.6105 66.3994 19.291 66.3994 18.8857C66.3994 18.4804 66.704 18.1639 67.1042 18.1639H67.1101V18.1668ZM67.1101 18.013C66.6055 18.013 66.2053 18.3976 66.2053 18.8857C66.2053 19.3738 66.6055 19.7702 67.1101 19.7702C67.6148 19.7702 68.003 19.3857 68.003 18.8857C68.003 18.3858 67.6148 18.013 67.1161 18.013H67.1101ZM66.9489 18.5662C66.9787 18.5603 67.0146 18.5544 67.0833 18.5544C67.2445 18.5544 67.3042 18.6195 67.3042 18.7082C67.3042 18.8118 67.1878 18.8502 67.0653 18.8502H66.9489V18.5633V18.5662ZM66.9489 18.9833H67.0594C67.1878 18.9833 67.2505 19.0277 67.2714 19.1312C67.2983 19.2525 67.3221 19.3354 67.349 19.3679H67.5252C67.5013 19.3354 67.4804 19.2792 67.4535 19.1431C67.4267 19.0218 67.3819 18.9508 67.3042 18.9183V18.9064C67.3998 18.8739 67.4804 18.8029 67.4804 18.6905C67.4804 18.6017 67.4416 18.5307 67.3878 18.4923C67.3341 18.4479 67.2535 18.4213 67.0982 18.4213C66.9698 18.4213 66.8712 18.4331 66.7757 18.4479V19.365H66.9459V18.9804L66.9489 18.9833Z" fill="var(--fill-0, #303F4A)"/>
<path id="Vector_7" d="M62.8937 20.427C63.2849 20.3323 63.6462 20.2051 63.9747 20.0424C64.3032 19.8797 64.6078 19.6844 64.8855 19.4596C65.1632 19.2348 65.423 18.9833 65.6619 18.7082L64.2793 17.3563C63.912 17.7201 63.5238 18.016 63.1117 18.2497C62.7026 18.4804 62.2248 18.5958 61.6814 18.5958C61.2394 18.5958 60.8363 18.51 60.469 18.3414C60.1017 18.1728 59.7852 17.945 59.5224 17.6551C59.2566 17.3681 59.0536 17.0309 58.9073 16.6404C58.7609 16.2528 58.6893 15.8387 58.6893 15.4008V15.3624C58.6893 14.9246 58.7609 14.5134 58.9073 14.1317C59.0536 13.7501 59.2507 13.4188 59.5045 13.1378C59.7583 12.8567 60.0599 12.6319 60.4152 12.4603C60.7676 12.2917 61.1528 12.2059 61.5709 12.2059C62.1502 12.2059 62.6429 12.3213 63.04 12.552C63.4372 12.7828 63.8135 13.0815 64.1688 13.4425L65.5902 11.9219C65.1214 11.4101 64.5749 10.996 63.9508 10.6824C63.3237 10.3688 62.5384 10.212 61.5918 10.212C60.8452 10.212 60.1555 10.3481 59.5164 10.6262C58.8804 10.9013 58.3279 11.274 57.8681 11.7444C57.4082 12.2148 57.0469 12.765 56.7871 13.3981C56.5273 14.0312 56.3989 14.6968 56.3989 15.3979V15.4363C56.3989 16.1375 56.5273 16.8001 56.7871 17.4273C57.0469 18.0515 57.4052 18.5988 57.8681 19.0603C58.3279 19.5247 58.8744 19.8915 59.5075 20.1578C60.1405 20.427 60.8273 20.5631 61.5739 20.5631C62.0666 20.5631 62.5085 20.5157 62.8997 20.4211M52.6155 20.2051C53.1769 19.9803 53.6756 19.6489 54.1115 19.2082C54.5475 18.7703 54.8939 18.2319 55.1537 17.5929C55.4135 16.9539 55.5419 16.2233 55.5419 15.3949V15.3565C55.5419 14.5311 55.4105 13.7975 55.1447 13.1585C54.879 12.5195 54.5296 11.9811 54.0936 11.5432C53.6576 11.1054 53.162 10.7741 52.6065 10.5493C52.0511 10.3244 51.4748 10.212 50.8806 10.212C50.0713 10.212 49.3965 10.3895 48.853 10.7475C48.3095 11.1025 47.8556 11.5462 47.4883 12.0698V6.62361H45.195V20.3323H47.4883V18.794C47.8407 19.2585 48.2916 19.6637 48.8351 20.0158C49.3785 20.3649 50.0594 20.5424 50.8835 20.5424C51.4778 20.5424 52.0541 20.4299 52.6185 20.2051M49.2352 18.3443C48.8799 18.1935 48.5723 17.9805 48.3065 17.7054C48.0408 17.4302 47.8287 17.0959 47.6705 16.6995C47.5122 16.3061 47.4316 15.8712 47.4316 15.3949V15.3565C47.4316 14.8802 47.5092 14.4483 47.6705 14.0607C47.8287 13.6732 48.0408 13.3389 48.3065 13.0549C48.5723 12.7739 48.8799 12.5579 49.2352 12.4071C49.5905 12.2562 49.9608 12.1822 50.355 12.1822C50.7492 12.1822 51.1165 12.2562 51.4628 12.4071C51.8092 12.5579 52.1138 12.7709 52.3736 13.0461C52.6334 13.3212 52.8365 13.6555 52.9888 14.0489C53.141 14.4424 53.2157 14.8802 53.2157 15.3535V15.392C53.2157 15.8801 53.141 16.3209 52.9888 16.7173C52.8365 17.1107 52.6304 17.445 52.3736 17.7113C52.1138 17.9805 51.8122 18.1905 51.4628 18.3414C51.1135 18.4923 50.7462 18.5662 50.355 18.5662C49.9638 18.5662 49.5905 18.4923 49.2352 18.3414M41.2742 20.4151C41.6654 20.3205 42.0267 20.1933 42.3552 20.0306C42.6836 19.8679 42.9882 19.6726 43.2659 19.4478C43.5436 19.223 43.8034 18.9715 44.0423 18.6964L42.6598 17.3444C42.2925 17.7083 41.9043 18.0041 41.4922 18.2378C41.0801 18.4686 40.6023 18.584 40.0618 18.584C39.6169 18.584 39.2138 18.4982 38.8495 18.3296C38.4822 18.1609 38.1656 17.9331 37.8999 17.6432C37.6341 17.3563 37.4281 17.019 37.2847 16.6285C37.1384 16.241 37.0667 15.8268 37.0667 15.389V15.3506C37.0667 14.9127 37.1414 14.5015 37.2847 14.1199C37.4311 13.7383 37.6281 13.407 37.882 13.1259C38.1358 12.8449 38.4374 12.6201 38.7927 12.4485C39.1451 12.2799 39.5303 12.1941 39.9484 12.1941C40.5306 12.1941 41.0204 12.3094 41.4175 12.5402C41.8147 12.7709 42.1909 13.0697 42.5463 13.4306L43.9677 11.9101C43.4989 11.3983 42.9554 10.9841 42.3283 10.6705C41.7012 10.357 40.9159 10.2002 39.9693 10.2002C39.2227 10.2002 38.5329 10.3363 37.8939 10.6143C37.2549 10.8895 36.7054 11.2622 36.2456 11.7326C35.7827 12.2029 35.4244 12.7532 35.1646 13.3863C34.9048 14.0193 34.7764 14.6849 34.7764 15.3861V15.4245C34.7764 16.1256 34.9048 16.7883 35.1646 17.4154C35.4244 18.0396 35.7827 18.5869 36.2456 19.0484C36.7054 19.5129 37.2519 19.8797 37.8849 20.1459C38.518 20.4151 39.2048 20.5512 39.9513 20.5512C40.4441 20.5512 40.886 20.5039 41.2772 20.4092" fill="var(--fill-0, #303F4A)"/>
</g>
<defs>
<clipPath id="clip0_959_7564">
<rect width="68" height="30" fill="white"/>
</clipPath>
</defs>
</svg>
